<svg width="63" height="51" viewBox="0 0 63 51" fill="none" xmlns="http://www.w3.org/2000/svg">
<path d="M26.4067 0.818905V0.78125H49.3736V0.820441L26.4067 0.818905Z" fill="#E4B935"/>
<path d="M26.4066 0.817383H49.3735C49.1999 1.59975 49.0294 2.38286 48.8518 3.1645C48.172 6.15545 47.4901 9.14542 46.8061 12.1344C46.5299 13.3494 46.2536 14.5651 45.9742 15.7786C45.9387 15.9265 45.9545 15.979 46.1321 15.9812C46.7635 15.9901 47.3949 15.9812 48.0263 15.9583C48.3351 15.941 48.645 15.9599 48.9489 16.0145C49.5013 16.1239 49.6552 16.4973 49.3246 16.9314C49.1396 17.1573 48.8992 17.3379 48.6237 17.4579C48.001 17.7589 47.327 17.8876 46.6411 17.9711C46.3032 18.0197 45.9618 18.0444 45.6199 18.0451C45.4873 18.0451 45.4533 18.1028 45.4312 18.2026C45.2208 19.1393 45.0085 20.0779 44.7943 21.0185L42.8457 29.6276C42.8062 29.8021 42.7668 29.9759 42.7297 30.1519C42.7107 30.251 42.6728 30.3109 42.5521 30.2902C42.5193 30.2872 42.4862 30.2872 42.4534 30.2902H19.9814C19.7099 30.2902 19.7107 30.2902 19.7691 30.0299C20.8941 25.0665 22.0185 20.1031 23.1423 15.1397C23.3933 14.0324 23.6451 12.9256 23.8976 11.8194C23.9196 11.7554 23.9151 11.686 23.885 11.6249C23.5496 11.003 23.443 10.3279 23.3728 9.64605C23.1936 7.91271 23.6238 6.25701 24.1281 4.61388C24.2741 4.14061 24.8234 3.84926 25.4224 3.91285C25.6426 3.93578 25.7058 3.87957 25.7468 3.68435C25.9465 2.74965 26.1651 1.81864 26.3782 0.886154C26.3855 0.862475 26.395 0.839458 26.4066 0.817383ZM34.2201 16.1246C34.2789 16.1187 34.3381 16.1187 34.3969 16.1246C35.1183 16.2785 35.4876 15.8791 35.7796 15.3578C35.8128 15.2979 35.8467 15.2373 35.8751 15.1759C36.078 14.7433 36.0772 14.7426 35.7039 14.4364C35.6793 14.4147 35.6529 14.395 35.6249 14.3773C35.4616 14.2841 35.4624 14.1842 35.5626 14.0319C35.8731 13.5587 36.3268 13.1827 36.8661 12.9518C37.4054 12.721 38.0058 12.6457 38.5909 12.7356C38.7911 12.761 38.9798 12.8378 39.1363 12.9574C39.6493 13.3427 40.1796 13.7058 40.7211 14.0563C41.2191 14.3876 41.7389 14.6892 42.2774 14.9592C42.4771 15.0568 42.4882 15.0524 42.47 14.8513C42.4353 14.4712 42.395 14.0913 42.3493 13.7117C42.2475 12.8584 41.972 12.0723 41.3895 11.3868C40.972 10.8958 40.5751 10.3892 40.1489 9.90413C40.1074 9.86237 40.0766 9.81227 40.059 9.75767C40.0414 9.70307 40.0373 9.64542 40.0471 9.58911C40.1418 8.88956 40.1433 8.88512 39.6777 8.33199C38.6517 7.11333 37.4331 6.06918 36.1877 5.05313C36.1144 5.00104 36.0289 4.96606 35.9383 4.95108C35.0772 4.7526 34.1964 4.63934 33.3101 4.61314C32.7955 4.59096 32.3188 4.6442 31.8966 4.93999C31.5517 5.1818 31.1863 5.22173 30.753 5.15444C29.3544 4.93629 27.9488 4.75734 26.5447 4.57099C26.1359 4.51701 25.731 4.42309 25.3135 4.44232C24.9544 4.45785 24.7548 4.57469 24.664 4.85199C24.2165 6.22151 23.8747 7.611 23.9245 9.05668C23.9504 10.3909 24.4218 11.6839 25.2725 12.7541C26.2196 13.9506 27.5013 14.7182 28.9669 15.238C30.6567 15.8355 32.423 16.0492 34.2162 16.1217L34.2201 16.1246ZM34.0623 25.2003C33.9794 25.2513 33.9249 25.2853 33.8697 25.3179C33.1854 25.7202 32.5019 26.1239 31.8137 26.5203C31.6748 26.6001 31.6685 26.6416 31.7979 26.7421C32.9029 27.5962 34.0031 28.457 35.1056 29.3148C35.1332 29.337 35.1585 29.3747 35.2169 29.3488C35.2287 29.158 35.2524 28.962 35.2493 28.7661C35.2489 28.5449 35.2986 28.3261 35.3953 28.1242C35.7023 27.438 35.9959 26.7466 36.2974 26.0581C36.336 25.9737 36.3535 25.8821 36.3487 25.7904C36.3218 25.1811 36.2966 24.5717 36.2769 23.9624C36.2735 23.8522 36.2378 23.7449 36.1735 23.6526C35.4758 22.5951 34.7828 21.5354 34.0828 20.4787C34.0517 20.4367 34.0316 20.3885 34.0239 20.3379C34.0162 20.2874 34.0212 20.2358 34.0386 20.1874C34.1554 19.8095 34.2611 19.4286 34.3772 19.05C34.4209 18.9019 34.4343 18.7473 34.4166 18.5945C34.3756 18.1774 34.3377 17.7604 34.3069 17.3426C34.2982 17.2036 34.2564 17.1577 34.0993 17.157C33.0541 17.1577 32.0114 17.0608 30.9866 16.8678C28.3182 16.3502 26.1675 15.099 24.6332 12.9641C24.6024 12.922 24.5874 12.8613 24.5054 12.8443C24.4967 12.8791 24.4872 12.9131 24.4793 12.9471C23.7985 15.9731 23.1179 18.9995 22.4375 22.0264C22.3523 22.4043 22.3523 22.4088 22.758 22.4487C23.02 22.4746 23.2694 22.553 23.5472 22.4583C24.8929 22.005 26.2472 21.5746 27.5968 21.1272C27.6637 21.0984 27.7379 21.0877 27.811 21.0963C27.8841 21.1049 27.9532 21.1326 28.0104 21.176C29.8019 22.374 31.5972 23.5675 33.3961 24.7566L34.0623 25.2003ZM27.7531 21.8305C27.7531 22.7356 27.7531 23.6282 27.7531 24.5215C27.7548 24.6738 27.7228 24.8249 27.6592 24.9651C27.1383 26.1269 26.6237 27.2916 26.1012 28.4533C26.0715 28.5071 26.0572 28.5672 26.0597 28.6277C26.0622 28.6882 26.0814 28.7471 26.1154 28.7986C26.2259 28.9805 26.3238 29.1684 26.4145 29.3599C26.4312 29.4083 26.4652 29.4499 26.5108 29.4776C26.5563 29.5054 26.6107 29.5176 26.6647 29.5122C27.9212 29.5056 29.1769 29.5122 30.4325 29.507C30.487 29.507 30.5493 29.5307 30.6078 29.4708C30.4925 29.249 30.3812 29.019 30.2565 28.7971C30.1926 28.6904 30.1735 28.5651 30.2029 28.4459C30.5107 27.0364 30.8106 25.6248 31.1231 24.2161C31.1547 24.0763 31.1231 24.0068 31.0047 23.9291C29.9745 23.2572 28.9461 22.5828 27.9196 21.9059C27.8742 21.8608 27.8127 21.8329 27.7468 21.8275L27.7531 21.8305ZM45.1282 17.5755C45.2726 17.5755 45.417 17.5799 45.5615 17.5755C46.4241 17.543 47.2757 17.4431 48.0965 17.1769C48.3491 17.1063 48.5819 16.9843 48.7784 16.8198C48.8715 16.7362 48.956 16.6378 48.9015 16.5114C48.8534 16.399 48.7232 16.3909 48.6142 16.3901C48.3514 16.3901 48.087 16.3835 47.825 16.4057C46.7165 16.5048 45.598 16.4271 44.5173 16.1757C42.5947 15.7283 40.8813 14.8786 39.2965 13.7871C39.0909 13.6366 38.8452 13.5418 38.5862 13.5128C37.8467 13.4389 37.2042 13.5993 36.7259 14.1732C36.6375 14.2789 36.6352 14.3462 36.7512 14.4423C37.3612 14.9489 38.0187 15.4031 38.7156 15.7993C40.6808 16.9218 42.7999 17.574 45.1219 17.5726L45.1282 17.5755ZM39.2452 16.7754C39.2657 16.9041 39.2846 16.9972 39.2949 17.0971C39.3273 17.415 39.4385 17.7241 39.4046 18.048C39.3004 19.0412 39.0747 20.0173 38.9358 21.006C38.8285 21.7758 38.7188 22.5463 38.763 23.3242C38.7985 23.9528 39.0163 24.5192 39.5853 24.8927C40.122 25.2447 40.7116 25.3519 41.3311 25.0524C41.3793 25.0333 41.4198 25.0004 41.4467 24.9585C41.4737 24.9165 41.4857 24.8675 41.4811 24.8187C41.4786 24.6095 41.4567 24.401 41.4156 24.1953C41.388 24.0652 41.343 24.0312 41.193 24.0563C40.6358 24.1502 40.253 23.7746 40.362 23.2562C40.4575 22.8007 40.6508 22.3762 40.8355 21.9495C41.2846 20.9254 41.8181 19.9359 42.2845 18.9177C42.4037 18.6308 42.4768 18.3291 42.5016 18.0222C42.5142 17.9216 42.5016 17.8698 42.3674 17.8536C42.1466 17.8233 41.9278 17.7809 41.7123 17.7264C40.8484 17.5139 40.0186 17.1941 39.2452 16.7754Z" fill="#DFAC0F"/>
<path d="M34.5775 38.8366C34.8088 38.8714 35.0355 38.9289 35.2539 39.0082C35.9705 39.2885 36.3525 39.8083 36.3872 40.5175C36.4519 41.8271 35.7787 42.7892 34.6675 43.5102C33.9532 43.971 33.1054 44.2157 32.2382 44.2112C31.0883 44.2193 29.9376 44.2112 28.7869 44.2112C28.479 44.2112 28.4096 44.1298 28.4712 43.8503C29.1673 40.6898 29.8636 37.5292 30.5603 34.3687C30.6313 34.0441 30.7181 33.9805 31.0654 33.9805C31.8081 33.9805 32.5507 33.9805 33.2942 33.9805C33.9816 33.9805 34.6596 34.0544 35.2957 34.3169C35.9855 34.6016 36.5032 35.0483 36.5774 35.7848C36.6832 36.8356 36.3051 37.7193 35.4015 38.3819C35.1442 38.5595 34.8681 38.7119 34.5775 38.8366ZM31.5334 43.0169V43.0058C31.7765 43.0058 32.0196 43.0155 32.2619 43.0058C33.4292 42.9533 34.1947 42.3226 34.4054 41.2473C34.5759 40.3733 34.1229 39.7684 33.1924 39.6368C32.6115 39.5562 32.0251 39.6175 31.4419 39.5983C31.3456 39.5983 31.34 39.6486 31.3266 39.7107C31.2619 40.0117 31.1948 40.3126 31.1277 40.6129C30.9636 41.3524 30.8026 42.0918 30.6329 42.8313C30.5982 42.9792 30.6281 43.0347 30.8049 43.0236C31.0464 43.0058 31.2903 43.0169 31.5334 43.0169ZM32.1885 38.4018C32.4376 38.4159 32.6877 38.4025 32.9335 38.3619C33.8403 38.1674 34.5325 37.4109 34.6225 36.5132C34.6943 35.7996 34.3589 35.3751 33.6131 35.2317C33.2824 35.1681 32.9469 35.1858 32.6139 35.1659C32.385 35.1518 32.3076 35.2169 32.2642 35.4306C32.074 36.3712 31.8633 37.3081 31.6486 38.2451C31.6147 38.393 31.662 38.41 31.7946 38.4018C31.9272 38.3937 32.0567 38.4018 32.1885 38.4018Z" fill="white"/>
<path d="M43.7652 37.739C43.8686 37.4987 43.9641 37.2953 44.043 37.0905C44.0653 37.0095 44.1179 36.9387 44.1912 36.8911C44.2645 36.8434 44.3537 36.8221 44.4424 36.8309C44.7778 36.8376 45.1132 36.8309 45.4487 36.8309C45.6973 36.8309 45.7699 36.9175 45.7225 37.14C45.3542 38.8453 44.9859 40.5508 44.6176 42.2565C44.5802 42.3941 44.5674 42.5365 44.5797 42.678C44.6137 42.9147 44.6981 42.9982 44.9507 43.0293C45.1085 43.0485 45.1748 43.1298 45.148 43.2689C45.103 43.5048 45.0509 43.7399 44.9901 43.9729C44.9771 44.044 44.9368 44.1082 44.8768 44.1534C44.8167 44.1986 44.7411 44.2217 44.6642 44.2184C44.3483 44.2321 44.032 44.2032 43.725 44.1326C43.2396 44.0128 42.9744 43.7192 42.9128 43.2452C42.9057 43.1912 42.9034 43.1365 42.8979 43.0729C42.8126 43.0921 42.7826 43.1587 42.74 43.2045C41.7613 44.2058 40.5491 44.5607 39.1363 44.3308C38.1845 44.1755 37.5926 43.6186 37.3795 42.729C37.1972 41.9711 37.295 41.2227 37.4584 40.4766C37.651 39.5892 37.9754 38.7529 38.5634 38.0148C39.5791 36.7289 41.2144 36.456 42.4582 36.7481C43.0336 36.8879 43.4582 37.2147 43.7652 37.739ZM39.1087 41.8394C39.1089 42.0063 39.1242 42.1727 39.1545 42.3371C39.2405 42.8281 39.5294 43.1003 40.0534 43.1823C41.0794 43.3436 42.0613 42.9257 42.5719 42.0635C43.0783 41.1952 43.3253 40.215 43.2869 39.2261C43.2688 38.5266 42.9144 38.0925 42.2862 37.9202C41.9175 37.8254 41.5305 37.8115 41.1552 37.8795C40.4907 37.9845 40.1032 38.4016 39.8317 38.9325C39.3613 39.851 39.194 40.8367 39.1087 41.8394Z" fill="white"/>
<path d="M58.9853 34.043C58.7669 35.0388 58.548 36.0327 58.3286 37.0246C58.1108 38.0177 57.8938 39.0108 57.6743 40.0106C57.7769 40.0047 57.8101 39.9366 57.8582 39.8923C58.844 38.9775 59.8313 38.0643 60.81 37.1429C60.9096 37.041 61.032 36.961 61.1684 36.9084C61.3048 36.8559 61.4519 36.8322 61.5992 36.8389C61.9599 36.8515 62.3222 36.8389 62.6836 36.8456C62.7626 36.8456 62.862 36.8256 62.8967 36.8996C62.9315 36.9735 62.8352 37.0253 62.7807 37.0726C61.5705 38.1399 60.3567 39.2053 59.1392 40.2687C59.0113 40.3803 59.0113 40.4498 59.1021 40.5815C59.8566 41.6766 60.6016 42.7777 61.3522 43.8766C61.3877 43.9284 61.4232 43.9809 61.454 44.0341C61.5187 44.145 61.4832 44.2227 61.349 44.2234C60.7768 44.2234 60.2046 44.2286 59.6332 44.2168C59.462 44.2168 59.3633 44.0859 59.2797 43.952C58.7119 43.038 58.1421 42.126 57.5702 41.2159C57.5354 41.1605 57.5189 41.0895 57.4313 41.051C57.2687 41.7905 57.1085 42.5204 56.9467 43.2517C56.8961 43.481 56.848 43.7102 56.7928 43.938C56.7375 44.1657 56.6452 44.2271 56.4092 44.2286C56.0414 44.2286 55.6728 44.2286 55.3043 44.2286C54.9759 44.2286 54.9144 44.1606 54.9799 43.8655C55.1819 42.9508 55.3871 42.036 55.5892 41.1205C56.0322 39.1235 56.4718 37.1293 56.908 35.1381C56.9148 35.0874 56.9356 35.0393 56.9682 34.9983C57.0009 34.9573 57.0443 34.925 57.0942 34.9045C57.6586 34.6427 58.2181 34.372 58.7801 34.1066C58.8398 34.0661 58.9115 34.0439 58.9853 34.043Z" fill="white"/>
<path d="M49.263 38.0247C49.5367 37.6814 49.8525 37.3695 50.2038 37.0952C51.0333 36.4592 52.7144 36.5583 53.4941 37.2261C54.1255 37.7681 54.2968 38.4625 54.1603 39.2153C53.9827 40.1907 53.7467 41.1564 53.5407 42.1274C53.4957 42.3381 53.4531 42.5518 53.5155 42.7678C53.5589 42.9194 53.6283 43.0414 53.8311 43.0399C54.0016 43.0399 54.0679 43.1375 54.0395 43.2847C53.9945 43.5198 53.944 43.7557 53.8856 43.9886C53.8721 44.0569 53.8328 44.1184 53.7747 44.1616C53.7167 44.2048 53.644 44.2269 53.5699 44.2238C53.2543 44.24 52.9379 44.2098 52.6323 44.1343C51.922 43.9472 51.5716 43.4688 51.6063 42.7293C51.6292 42.2272 51.7862 41.748 51.8801 41.2585C52.008 40.5929 52.2219 39.9422 52.2613 39.2619C52.2704 39.1269 52.2704 38.9916 52.2613 38.8566C52.2061 38.1098 51.7089 37.7533 50.9267 37.8776C50.6824 37.9146 50.4492 37.9996 50.2425 38.1271C50.0357 38.2545 49.8601 38.4215 49.7271 38.6171C49.3751 39.1007 49.2259 39.6523 49.1012 40.2158C48.8292 41.4434 48.5548 42.6709 48.2781 43.8984C48.2197 44.1572 48.1257 44.2245 47.8432 44.2253C47.462 44.2253 47.08 44.2253 46.6988 44.2253C46.4565 44.2253 46.3831 44.1321 46.4289 43.9088C46.7972 42.2223 47.1671 40.5358 47.5385 38.8493C47.5796 38.6629 47.6285 38.4795 47.5685 38.2843C47.5212 38.1364 47.4359 38.0403 47.2528 38.0262C47.0326 38.0092 46.9853 37.9375 47.0295 37.7304C47.0737 37.5234 47.1179 37.32 47.1637 37.1159C47.1736 37.0382 47.2142 36.9667 47.2774 36.9154C47.3405 36.8641 47.4218 36.8368 47.5054 36.8386C47.8277 36.8193 48.1512 36.8488 48.4635 36.9259C48.9836 37.0671 49.2007 37.3163 49.2528 37.8206C49.2528 37.8739 49.2528 37.9271 49.263 38.0247Z" fill="white"/>
<path d="M3.16815 38.3826H4.3599C4.95183 38.3826 5.54376 38.3826 6.13569 38.3826C6.4206 38.3826 6.48927 38.461 6.43323 38.7227C6.38903 38.9276 6.34168 39.1317 6.29274 39.3358C6.23039 39.5931 6.1349 39.6641 5.83578 39.6641C4.92815 39.6641 4.02053 39.6641 3.11369 39.6582C2.94085 39.6582 2.86903 39.6892 2.83193 39.8645C2.55728 41.1675 2.26526 42.4667 1.98034 43.7682C1.90142 44.138 1.83828 44.1882 1.42788 44.1882C1.05299 44.1882 0.678098 44.1882 0.303999 44.1882C0.0325008 44.1882 -0.0377418 44.1062 0.0175049 43.8562C0.348985 42.3506 0.681255 40.8455 1.01431 39.3409C1.37736 37.6968 1.73936 36.053 2.10031 34.4093C2.1887 34.0071 2.2479 33.9583 2.69145 33.959L7.8215 33.9679C8.18771 33.9679 8.24296 34.0307 8.16798 34.3583C8.12378 34.5506 8.08195 34.7436 8.03302 34.9351C7.97225 35.174 7.88227 35.2405 7.62025 35.2405C6.43639 35.2405 5.25253 35.2405 4.06867 35.2405C3.91082 35.2405 3.84453 35.2679 3.81138 35.4254C3.60618 36.4052 3.38677 37.3858 3.16815 38.3826Z" fill="white"/>
<path d="M18.6935 44.3736C18.0688 44.3682 17.4492 44.2683 16.8585 44.0778C16.6503 44.0171 16.4608 43.9104 16.306 43.7665C16.1482 43.6119 16.1482 43.4707 16.2863 43.3051C16.3763 43.1993 16.4765 43.1017 16.5728 42.9997C16.8096 42.746 16.849 42.7371 17.2042 42.8518C17.6967 43.007 18.1923 43.1476 18.7156 43.172C19.1789 43.1949 19.6343 43.1779 20.0715 43.0107C20.2436 42.9475 20.3962 42.8451 20.5156 42.7128C20.6349 42.5804 20.7172 42.4224 20.755 42.2528C20.8284 41.9858 20.7455 41.8017 20.4953 41.6538C20.229 41.5074 19.9443 41.3926 19.6477 41.3122C19.3115 41.2101 18.976 41.0999 18.6343 41.0164C17.411 40.711 17.1166 39.8465 17.3557 38.8623C17.6406 37.6902 18.6303 36.8657 19.946 36.6897C20.8828 36.5662 21.8078 36.6157 22.6902 36.9803C22.8675 37.0459 23.0312 37.14 23.174 37.2583C23.3208 37.39 23.3318 37.4994 23.2056 37.6451C23.0477 37.8211 22.8836 37.9867 22.7265 38.1627C22.6476 38.2492 22.5615 38.2433 22.4605 38.2159C22.0762 38.1132 21.7092 37.9557 21.3138 37.8884C20.8631 37.8144 20.4117 37.7885 19.9665 37.9083C19.7746 37.9558 19.5989 38.0488 19.4564 38.1783C19.3139 38.3078 19.2093 38.4695 19.1528 38.6478C19.0108 39.0434 19.1662 39.3259 19.5908 39.4509C20.1165 39.6054 20.6445 39.7519 21.1693 39.902C21.4346 39.971 21.6899 40.0704 21.9294 40.1978C22.3729 40.4455 22.5923 40.8174 22.6184 41.2929C22.6886 42.5693 21.9554 43.5816 20.6042 44.0786C20.0241 44.2915 19.4196 44.3758 18.6935 44.3736Z" fill="white"/>
<path d="M25.2896 37.9395C25.0489 37.9395 24.8058 37.9395 24.5635 37.9395C24.2825 37.9395 24.2202 37.8708 24.2739 37.6186C24.3125 37.4374 24.3528 37.257 24.3993 37.078C24.4125 37.004 24.4544 36.937 24.5171 36.8902C24.5797 36.8434 24.6587 36.8199 24.7387 36.8244C24.9558 36.8244 25.1736 36.8126 25.3898 36.8244C25.5351 36.834 25.5793 36.7823 25.6021 36.6565C25.6621 36.3238 25.7395 35.991 25.8074 35.6605C25.82 35.5998 25.8255 35.5444 25.8973 35.5126C26.5469 35.2064 27.1956 34.8973 27.8633 34.5801C27.8807 34.779 27.812 34.9454 27.7781 35.114C27.6747 35.6316 27.5618 36.1396 27.445 36.6514C27.4142 36.7852 27.4356 36.8362 27.5989 36.8281C27.8673 36.8155 28.138 36.8222 28.4071 36.8281C28.6249 36.8318 28.6928 36.9057 28.6541 37.1076C28.6155 37.3095 28.5689 37.4929 28.5192 37.6837C28.4695 37.8745 28.3432 37.9477 28.1451 37.9462C27.8625 37.9462 27.5792 37.9462 27.2966 37.9462C27.1956 37.9462 27.1443 37.9676 27.1222 38.0682C26.8292 39.4436 26.5335 40.8181 26.2351 42.1916C26.1989 42.3491 26.2073 42.5128 26.2596 42.6663C26.2995 42.7716 26.374 42.8624 26.4724 42.9255C26.5708 42.9886 26.6881 43.0209 26.8073 43.0176C27.329 43.0301 27.3337 43.0346 27.2343 43.516C27.2035 43.6639 27.1688 43.8169 27.1317 43.9663C27.1208 44.0346 27.0839 44.0969 27.0277 44.1417C26.9715 44.1864 26.9 44.2105 26.8263 44.2096C26.4064 44.2192 25.9826 44.2451 25.5635 44.1756C24.7427 44.038 24.3362 43.584 24.322 42.7942C24.3125 42.2766 24.4633 41.7834 24.5714 41.2835C24.8082 40.1868 25.052 39.0909 25.292 37.9943C25.2938 37.976 25.293 37.9576 25.2896 37.9395Z" fill="white"/>
<path d="M14.3929 37.6497C14.4694 37.5579 14.5508 37.4698 14.6368 37.3857C15.2264 36.8622 15.9469 36.6869 16.7378 36.701C16.8956 36.701 16.9643 36.7483 16.9217 36.9147C16.8364 37.243 16.7709 37.5758 16.6951 37.9063C16.6281 38.2021 16.5247 38.2509 16.2098 38.2147C15.4024 38.1223 14.5192 38.3826 14.2564 39.4718C13.906 40.9286 13.5705 42.3891 13.2304 43.8481C13.1515 44.1964 13.082 44.2496 12.6969 44.2489C12.3488 44.2489 12 44.2489 11.6519 44.2489C11.3796 44.2489 11.3125 44.1668 11.3701 43.9153C11.7579 42.2264 12.1462 40.5379 12.5351 38.8499C12.5768 38.701 12.5975 38.5476 12.5966 38.3936C12.584 38.1481 12.4893 38.0461 12.2265 38.0062C12.0686 37.9825 11.9944 37.8997 12.0252 37.7488C12.0702 37.527 12.1152 37.3051 12.1689 37.0833C12.1799 37.0086 12.2198 36.9404 12.2811 36.8916C12.3424 36.8427 12.4207 36.8167 12.5011 36.8185C12.9084 36.8126 13.3164 36.8185 13.7118 36.9317C14.0796 37.0367 14.3053 37.2585 14.3369 37.6327L14.3929 37.6497Z" fill="white"/>
<path d="M7.48834 42.957C7.50491 42.4298 7.66749 41.9262 7.7843 41.4159C8.10552 40.0109 8.43542 38.6059 8.76296 37.2009C8.82294 36.9428 8.9208 36.8726 9.19704 36.8711C9.56535 36.8711 9.93366 36.8711 10.302 36.8711C10.579 36.8711 10.6461 36.945 10.5885 37.1957C10.2007 38.8788 9.81159 40.5614 9.42118 42.2434C9.36774 42.4472 9.34831 42.6575 9.36357 42.8668C9.38725 43.1027 9.47643 43.1922 9.71952 43.2262C9.86474 43.2469 9.93182 43.3275 9.90735 43.4569C9.86158 43.6995 9.80949 43.9405 9.74951 44.1794C9.73454 44.2433 9.69638 44.3003 9.64154 44.3407C9.58671 44.3812 9.51859 44.4026 9.44881 44.4012C9.05419 44.4131 8.65957 44.3835 8.28862 44.2363C7.73853 44.0219 7.47413 43.5885 7.48834 42.957Z" fill="white"/>
<path d="M35.0612 48.7334C35.7274 49.0876 35.7858 49.7983 35.2191 50.3107C34.8055 50.6879 33.9026 50.8091 33.3896 50.5577C33.27 50.5038 33.1693 50.419 33.0994 50.3132C33.0295 50.2075 32.9933 50.0853 32.995 49.9609C32.9795 49.7475 33.0283 49.5343 33.1359 49.3456C33.2435 49.1569 33.4055 49.0004 33.6035 48.8939C33.7022 48.8362 33.8103 48.7926 33.9129 48.746C33.9129 48.7319 33.9129 48.7149 33.9066 48.712C33.3454 48.4398 33.4701 47.9407 33.7637 47.5495C33.9122 47.3661 34.1248 47.2375 34.3643 47.1864C34.6323 47.1202 34.9125 47.1101 35.1851 47.1568C35.4472 47.1975 35.6871 47.2996 35.7684 47.5628C35.818 47.7031 35.8285 47.8529 35.7988 47.998C35.7691 48.1431 35.7002 48.2787 35.5987 48.3918C35.459 48.5456 35.2743 48.638 35.0612 48.7334ZM33.6674 49.7761C33.6616 49.8815 33.6976 49.9852 33.7686 50.0671C33.8396 50.1491 33.9405 50.2034 34.0518 50.2198C34.5735 50.3248 35.0778 49.8249 34.9476 49.3324C34.9266 49.235 34.8704 49.1475 34.7884 49.0845C34.7064 49.0216 34.6037 48.9871 34.4977 48.9871C34.0534 48.9693 33.6659 49.3361 33.6674 49.7761ZM34.759 47.5813C34.6835 47.5808 34.6088 47.5943 34.5389 47.6209C34.469 47.6475 34.4055 47.6867 34.3518 47.7364C34.2981 47.7861 34.2555 47.8451 34.2262 47.9103C34.1969 47.9754 34.1816 48.0453 34.1812 48.1159C34.178 48.165 34.1853 48.2143 34.2027 48.2607C34.2201 48.3071 34.2471 48.3498 34.2824 48.3863C34.3176 48.4228 34.3602 48.4524 34.4077 48.4733C34.4553 48.4941 34.5068 48.5059 34.5593 48.5079C34.8474 48.5123 35.1512 48.2121 35.1575 47.9229C35.1615 47.7203 35.0005 47.5828 34.759 47.5813Z" fill="white"/>
<path d="M38.7114 47.8226C38.6951 47.658 38.6214 47.503 38.5017 47.3815C38.3821 47.26 38.223 47.1788 38.0492 47.1504C37.8021 47.109 37.5478 47.1276 37.3105 47.2044C36.6301 47.4344 36.3831 47.9535 36.3192 48.5665C36.2521 49.2261 36.6609 49.5663 37.3665 49.4894C37.6333 49.4598 37.8172 49.3201 38.0066 49.1566C37.988 49.3719 37.9153 49.58 37.7943 49.7638C37.5899 50.1098 37.2844 50.2858 36.8519 50.2178C36.7086 50.2024 36.5672 50.1742 36.4297 50.1335C36.1929 50.0499 36.1874 50.2459 36.1203 50.3472C36.0366 50.4737 36.1826 50.501 36.26 50.5365C36.9127 50.8404 37.6293 50.7095 38.0752 50.1549C38.634 49.4694 38.8298 48.6745 38.7114 47.8226ZM38.1463 48.1502C38.1174 48.3583 38.0459 48.5592 37.9355 48.7418C37.8108 48.9333 37.6396 49.0487 37.3878 49.0376C37.0721 49.0302 36.934 48.8978 36.9411 48.5591C36.9557 48.3583 37.0114 48.162 37.1053 47.9809C37.1642 47.8564 37.2622 47.7517 37.3862 47.6806C37.5701 47.5808 37.773 47.5268 37.9632 47.6407C38.1534 47.7546 38.1818 47.9505 38.1463 48.1502Z" fill="white"/>
<path d="M40.4922 49.8087H39.0952C38.9018 49.8087 38.8648 49.7517 38.9531 49.5868C38.9882 49.5282 39.0312 49.474 39.081 49.4256C39.7195 48.7394 40.3683 48.0613 40.9941 47.3654C41.178 47.1606 41.3887 47.182 41.6168 47.1931C41.7455 47.199 41.6958 47.2989 41.6808 47.3639C41.5692 47.8757 41.4566 48.3869 41.343 48.8976C41.3236 49.0131 41.2972 49.1274 41.264 49.24C41.2191 49.3702 41.2806 49.3775 41.3943 49.3835C41.4834 49.3879 41.6421 49.3095 41.6381 49.4944C41.6326 49.7458 41.5742 49.8257 41.3737 49.8057C41.1733 49.7857 41.103 49.8604 41.0904 50.0276C41.0813 50.0884 41.0684 50.1486 41.0517 50.208C40.9531 50.6605 40.9531 50.6568 40.4598 50.6317C40.3375 50.6251 40.3154 50.5792 40.3375 50.4838C40.3888 50.2671 40.4369 50.0505 40.4922 49.8087ZM40.8615 48.1197L39.7369 49.3768C40.0226 49.3768 40.2554 49.3768 40.4882 49.3768C40.5027 49.3787 40.5175 49.3777 40.5316 49.3739C40.5457 49.3701 40.5588 49.3637 40.5701 49.3549C40.5813 49.3462 40.5905 49.3353 40.5971 49.323C40.6037 49.3108 40.6074 49.2973 40.6082 49.2836C40.6871 48.9139 40.7684 48.5427 40.8607 48.119L40.8615 48.1197Z" fill="white"/>
<path d="M17.9794 50.673C17.6781 50.6726 17.3797 50.6174 17.1009 50.5103C17.0315 50.4822 16.8949 50.4652 16.9573 50.3624C17.0196 50.2596 17.0307 50.06 17.2533 50.1095C17.558 50.1853 17.8724 50.2216 18.1877 50.2175C18.3535 50.2138 18.5158 50.173 18.6613 50.0984C19.0283 49.9062 19.0417 49.5394 18.6786 49.339C18.5 49.2501 18.3155 49.1721 18.1262 49.1053C17.3472 48.791 17.2027 48.0789 17.8207 47.5273C18.3179 47.0836 18.917 47.0458 19.5507 47.1982C19.6076 47.2122 19.6628 47.2315 19.7188 47.2492C20.0195 47.3461 20.0251 47.3668 19.8609 47.6101C19.8524 47.6279 19.8402 47.644 19.825 47.6574C19.8098 47.6708 19.7919 47.6812 19.7724 47.6881C19.7529 47.6949 19.7321 47.6981 19.7113 47.6974C19.6904 47.6967 19.6699 47.6922 19.651 47.684C19.3429 47.5941 19.0191 47.5609 18.6976 47.5864C18.5885 47.5928 18.4826 47.6233 18.3886 47.6755C18.2946 47.7277 18.2152 47.8001 18.1569 47.8866C17.9991 48.127 18.0575 48.3451 18.3266 48.4686C18.5089 48.5522 18.7015 48.6165 18.8878 48.6905C19.6912 49.0099 19.8049 49.85 19.1151 50.3543C18.8278 50.5613 18.4482 50.6708 17.9794 50.673Z" fill="white"/>
<path d="M22.6364 48.5128C22.8203 48.3272 22.9742 48.152 23.2307 48.0987C23.926 47.9553 24.4059 48.3901 24.2638 49.0423C24.1975 49.3492 24.1273 49.6553 24.0641 49.9629C24.0421 50.0724 24.0286 50.1707 24.1857 50.2314C24.3088 50.2787 24.2023 50.3933 24.1983 50.4776C24.1999 50.496 24.1973 50.5145 24.1908 50.5319C24.1843 50.5493 24.174 50.5653 24.1606 50.5788C24.1471 50.5923 24.1309 50.603 24.1128 50.6103C24.0947 50.6176 24.0752 50.6212 24.0555 50.6211C23.6245 50.6669 23.3546 50.4074 23.4304 50.0051C23.4872 49.7026 23.5567 49.4024 23.6198 49.1007C23.6313 49.0521 23.6385 49.0026 23.6411 48.9528C23.6466 48.7776 23.6411 48.6001 23.443 48.5091C23.2725 48.43 23.005 48.4973 22.8519 48.657C22.6988 48.8167 22.6285 49.0268 22.5812 49.2412C22.4896 49.6501 22.3949 50.0583 22.3089 50.4688C22.308 50.4915 22.3021 50.5138 22.2914 50.5342C22.2807 50.5546 22.2656 50.5727 22.247 50.5873C22.2284 50.6018 22.2067 50.6126 22.1834 50.6188C22.1601 50.625 22.1356 50.6265 22.1116 50.6233C21.6499 50.6337 21.6507 50.6374 21.7438 50.2136C21.8464 49.7438 21.9482 49.2742 22.0492 48.8049C22.0737 48.6903 22.1084 48.569 21.9277 48.5261C21.8488 48.5069 21.8661 48.4367 21.8866 48.3878C21.9229 48.3028 21.878 48.1793 22.0169 48.1423C22.0837 48.1225 22.1543 48.1167 22.2238 48.1253C22.2933 48.1339 22.3599 48.1566 22.419 48.192C22.4781 48.2273 22.5282 48.2743 22.5658 48.3298C22.6033 48.3852 22.6274 48.4477 22.6364 48.5128Z" fill="white"/>
<path d="M28.552 49.5822C28.3815 49.5822 28.2094 49.5903 28.0398 49.5822C27.9135 49.5748 27.8819 49.6251 27.8819 49.7301C27.8653 50.119 28.0895 50.3254 28.5007 50.278C28.6698 50.2581 28.8363 50.2224 28.9979 50.1715C29.1234 50.1324 29.17 50.1716 29.2197 50.2714C29.2694 50.3712 29.2473 50.4481 29.1408 50.4984C28.8164 50.6527 28.451 50.7149 28.0895 50.6774C27.4778 50.6212 27.2008 50.2891 27.2584 49.7123C27.2832 49.3989 27.3713 49.0928 27.5181 48.8102C27.8204 48.2459 28.3862 47.9856 29.035 48.1077C29.4122 48.1816 29.6348 48.4131 29.6538 48.7732C29.6601 48.8839 29.6521 48.9948 29.6301 49.1037C29.5512 49.4602 29.3933 49.5807 29.0058 49.5881C28.855 49.5881 28.7035 49.5881 28.5528 49.5881L28.552 49.5822ZM27.9861 49.1777H28.8282C28.8605 49.1813 28.8932 49.1762 28.9225 49.1632C28.9518 49.1501 28.9766 49.1295 28.994 49.1037C29.0792 48.9669 29.0389 48.68 28.915 48.5676C28.7911 48.4552 28.6064 48.4463 28.4233 48.544C28.1668 48.6793 28.0729 48.9211 27.9861 49.1777Z" fill="white"/>
<path d="M10.3724 34.0576C10.5823 34.0576 10.7923 34.0532 11.0038 34.0576C11.1948 34.0628 11.2698 34.1449 11.2334 34.3165C11.1514 34.702 11.0646 35.086 10.973 35.4686C10.9249 35.666 10.8152 35.7466 10.5942 35.7481C10.1995 35.7481 9.80492 35.7481 9.4103 35.7481C9.16406 35.7444 9.09461 35.6564 9.14749 35.4316C9.22641 35.0715 9.31165 34.7113 9.39768 34.3527C9.44898 34.1382 9.55079 34.0621 9.78046 34.0569C9.97698 34.0569 10.1751 34.0569 10.3708 34.0569L10.3724 34.0576Z" fill="white"/>
<path d="M31.9374 47.8987C31.7243 47.9815 31.5333 48.0562 31.3408 48.128C31.2934 48.1457 31.2248 48.1768 31.1956 48.159C31.1387 48.125 31.1837 48.0577 31.1869 48.0045C31.1987 47.8122 31.3037 47.7005 31.5026 47.6303C31.864 47.5001 32.2129 47.3456 32.5704 47.2029C32.6225 47.1814 32.6801 47.1289 32.7283 47.16C32.7764 47.191 32.7354 47.2628 32.7283 47.313C32.5017 48.3557 32.2713 49.3976 32.0471 50.4403C32.0171 50.5801 31.9509 50.6304 31.7954 50.6281C31.3463 50.6222 31.3495 50.6281 31.4418 50.2177C31.606 49.4901 31.7654 48.761 31.9264 48.0326C31.9319 47.9978 31.9311 47.9601 31.9374 47.8987Z" fill="white"/>
<path d="M24.7793 49.7885C24.7874 49.4487 24.8741 49.1147 25.0334 48.8094C25.3626 48.166 26.2402 47.8769 26.9103 48.1934C26.9955 48.2341 27.1541 48.2548 27.0981 48.4019C27.0342 48.5661 26.8787 48.6363 26.7256 48.5683C26.1218 48.3021 25.6948 48.6371 25.533 49.1089C25.4461 49.3415 25.4064 49.5873 25.4162 49.8336C25.4367 50.1397 25.6396 50.3024 25.9687 50.2773C26.1249 50.2579 26.278 50.2212 26.4249 50.1678C26.5038 50.1434 26.5748 50.1197 26.6151 50.2225C26.6482 50.3076 26.7122 50.3815 26.604 50.468C26.2718 50.7335 25.4147 50.7542 25.0729 50.4984C24.8235 50.3164 24.773 50.0621 24.7793 49.7885Z" fill="white"/>
<path d="M20.0991 50.0651C20.1717 49.7257 20.257 49.3256 20.3462 48.9197C20.3919 48.7089 20.4456 48.4996 20.4851 48.2881C20.4857 48.2654 20.4915 48.243 20.502 48.2225C20.5125 48.202 20.5276 48.1839 20.5461 48.1692C20.5647 48.1545 20.5864 48.1437 20.6097 48.1374C20.6331 48.1312 20.6575 48.1296 20.6816 48.1329C21.148 48.1195 21.1457 48.1158 21.0525 48.5374C20.9491 49.0069 20.8465 49.4758 20.7479 49.9461C20.7242 50.0599 20.7013 50.1679 20.871 50.2293C20.991 50.2722 20.8892 50.3772 20.8852 50.4593C20.8813 50.5413 20.8576 50.6012 20.7573 50.6197C20.403 50.6848 20.0991 50.4607 20.0991 50.0651Z" fill="white"/>
<path d="M21.0563 47.0784C21.1352 47.0784 21.196 47.0784 21.2544 47.0784C21.3128 47.0784 21.3657 47.1021 21.3538 47.1642C21.327 47.3025 21.2939 47.4393 21.2576 47.5753C21.2433 47.6271 21.1928 47.6448 21.1376 47.6545C20.6719 47.7328 20.6183 47.6715 20.713 47.2433C20.7611 47.0111 20.9395 47.0984 21.0563 47.0784Z" fill="white"/>
<path d="M34.216 16.1222C32.4228 16.0482 30.6565 15.836 28.9652 15.2348C27.4996 14.7171 26.2179 13.9473 25.2708 12.7509C24.4201 11.6807 23.9487 10.3876 23.9227 9.05346C23.8762 7.60777 24.2148 6.21829 24.6623 4.84877C24.753 4.57146 24.9527 4.45462 25.3118 4.43909C25.7293 4.41987 26.1342 4.51304 26.543 4.56776C27.9471 4.75411 29.3527 4.93307 30.7512 5.15121C31.1837 5.21851 31.55 5.17857 31.8948 4.93676C32.3171 4.64097 32.7938 4.58773 33.3084 4.60991C34.1951 4.63799 35.0763 4.75325 35.9373 4.95377C36.0279 4.96875 36.1134 5.00373 36.1867 5.05582C37.4322 6.07187 38.6484 7.11602 39.6767 8.33468C40.1424 8.88633 40.1408 8.89077 40.0461 9.5918C40.0363 9.64811 40.0404 9.70576 40.0581 9.76036C40.0757 9.81496 40.1064 9.86506 40.1479 9.90682C40.5741 10.3919 40.9711 10.8985 41.3886 11.3895C41.9711 12.075 42.2465 12.861 42.3483 13.7144C42.3941 14.0935 42.4343 14.4734 42.4691 14.8539C42.4872 15.0551 42.4762 15.0595 42.2765 14.9619C41.738 14.6919 41.2182 14.3903 40.7201 14.059C40.1787 13.7085 39.6483 13.3454 39.1353 12.9601C38.9789 12.8405 38.7901 12.7637 38.59 12.7383C38.0049 12.6484 37.4045 12.7237 36.8652 12.9545C36.3259 13.1854 35.8721 13.5613 35.5617 14.0346C35.4614 14.1869 35.4606 14.2868 35.624 14.3799C35.652 14.3977 35.6783 14.4174 35.7029 14.4391C36.0762 14.7423 36.077 14.743 35.8742 15.1786C35.8458 15.24 35.8118 15.3006 35.7787 15.3605C35.4867 15.8781 35.1173 16.2811 34.3959 16.1273C34.3363 16.1195 34.276 16.1177 34.216 16.1222ZM36.1291 9.67314L35.0629 8.55209C34.9737 8.45817 34.9247 8.55209 34.8726 8.59202C34.3328 9.03275 33.794 9.47496 33.2563 9.91865C33.2105 9.95636 33.1426 9.98151 33.1332 10.0628L36.1291 9.67314Z" fill="#162D4C"/>
<path d="M34.0557 25.1976L33.3919 24.7539C31.5956 23.5618 29.8004 22.369 28.0062 21.1755C27.949 21.132 27.8799 21.1044 27.8068 21.0958C27.7337 21.0872 27.6595 21.0979 27.5926 21.1267C26.243 21.5704 24.8887 22.0015 23.543 22.4578C23.2628 22.5524 23.0134 22.474 22.7538 22.4482C22.3481 22.4082 22.3481 22.4038 22.4333 22.0259C23.1121 18.9975 23.7911 15.9701 24.4704 12.9436C24.4783 12.9096 24.4877 12.8756 24.4964 12.8408C24.5753 12.8578 24.5935 12.9185 24.6243 12.9606C26.1586 15.0955 28.3092 16.3497 30.9776 16.8643C32.0024 17.0573 33.0451 17.1542 34.0904 17.1535C34.2483 17.1535 34.2893 17.2001 34.298 17.3391C34.3256 17.7569 34.3666 18.174 34.4077 18.591C34.4254 18.7438 34.412 18.8984 34.3682 19.0465C34.2522 19.4252 34.1464 19.806 34.0296 20.1839C34.0123 20.2323 34.0073 20.2839 34.0149 20.3344C34.0226 20.385 34.0428 20.4332 34.0738 20.4752C34.7739 21.5319 35.4668 22.5916 36.1645 23.6491C36.2288 23.7415 36.2646 23.8487 36.2679 23.9589C36.2876 24.5683 36.3129 25.1776 36.3397 25.7869C36.3446 25.8786 36.327 25.9702 36.2884 26.0546C35.9869 26.7431 35.6934 27.4345 35.3863 28.1207C35.2897 28.3226 35.2399 28.5414 35.2403 28.7626C35.2403 28.9586 35.2198 29.1545 35.208 29.3453C35.1496 29.3712 35.1243 29.3335 35.0967 29.3113C33.9918 28.4535 32.8947 27.5927 31.789 26.7386C31.6596 26.6388 31.6659 26.5974 31.8048 26.5168C32.493 26.1204 33.1765 25.7167 33.8607 25.3144C33.9184 25.2826 33.9728 25.2486 34.0557 25.1976Z" fill="#162D4C"/>
<path d="M27.7469 21.8271C27.8115 21.8333 27.8715 21.8612 27.9158 21.9055C28.9445 22.5799 29.9728 23.2536 31.001 23.9265C31.1209 24.0042 31.1509 24.0744 31.1193 24.2135C30.8037 25.6185 30.5069 27.0338 30.1991 28.4433C30.1697 28.5626 30.1888 28.6878 30.2528 28.7945C30.3775 29.0164 30.4895 29.2449 30.604 29.4682C30.5456 29.5281 30.4832 29.5044 30.4288 29.5044C29.1731 29.5044 27.9174 29.5044 26.6609 29.5096C26.6069 29.515 26.5526 29.5028 26.507 29.475C26.4615 29.4473 26.4275 29.4057 26.4107 29.3573C26.32 29.1665 26.2221 28.9779 26.1116 28.796C26.0776 28.7445 26.0584 28.6856 26.0559 28.6251C26.0535 28.5646 26.0677 28.5045 26.0974 28.4507C26.6199 27.289 27.1345 26.1243 27.6554 24.9626C27.719 24.8223 27.751 24.6712 27.7493 24.5189C27.7438 23.6248 27.7469 22.7323 27.7469 21.8271Z" fill="#162D4C"/>
<path d="M45.1217 17.573C42.7997 17.573 40.6806 16.9222 38.7107 15.7982C38.0138 15.402 37.3563 14.9478 36.7463 14.4413C36.6302 14.3451 36.6326 14.2778 36.721 14.1721C37.1993 13.5982 37.8417 13.4385 38.5812 13.5117C38.8403 13.5407 39.086 13.6356 39.2916 13.7861C40.8764 14.8775 42.5898 15.7272 44.5124 16.1746C45.5921 16.4244 46.7091 16.5009 47.8161 16.4009C48.0774 16.3787 48.3418 16.3831 48.6054 16.3854C48.7143 16.3854 48.8421 16.3942 48.8927 16.5066C48.9471 16.6331 48.8627 16.7285 48.7695 16.815C48.573 16.9796 48.3402 17.1015 48.0876 17.1722C47.2668 17.4384 46.4152 17.5382 45.5526 17.5707C45.4105 17.5774 45.2661 17.573 45.1217 17.573Z" fill="#162D4C"/>
<path d="M39.2453 16.7754C40.0194 17.1945 40.85 17.5146 41.7148 17.7271C41.9303 17.7816 42.149 17.8241 42.3699 17.8543C42.5001 17.8706 42.5167 17.9223 42.504 18.0229C42.4793 18.3298 42.4061 18.6316 42.287 18.9184C41.8206 19.9352 41.287 20.9246 40.838 21.9503C40.6509 22.377 40.4575 22.8014 40.3644 23.2569C40.2555 23.7746 40.6383 24.151 41.1955 24.0571C41.3454 24.0319 41.3904 24.0659 41.418 24.1961C41.4591 24.4017 41.4811 24.6103 41.4836 24.8195C41.4882 24.8683 41.4761 24.9172 41.4492 24.9592C41.4222 25.0012 41.3818 25.0341 41.3336 25.0531C40.714 25.3526 40.1245 25.2454 39.5878 24.8934C39.0188 24.52 38.7986 23.9535 38.7654 23.325C38.7212 22.547 38.8309 21.7765 38.9383 21.0067C39.0772 20.0188 39.3029 19.0426 39.4071 18.0488C39.441 17.7249 39.3281 17.4158 39.2974 17.0978C39.2847 17.0002 39.2658 16.9018 39.2453 16.7754Z" fill="#162D4C"/>
<path d="M36.129 9.67264L33.1299 10.0624C33.1394 9.98101 33.2088 9.95587 33.253 9.91815C33.7902 9.47446 34.329 9.03225 34.8694 8.59152C34.9215 8.54937 34.9704 8.45768 35.0596 8.55159L36.129 9.67264Z" fill="#DCAA10"/>
</svg>
