<svg width="93" height="45" viewBox="0 0 93 45" fill="none" xmlns="http://www.w3.org/2000/svg">
<path d="M46.2588 0.591797C20.7109 0.591797 0 10.3443 0 22.374C0 34.404 20.7109 44.1563 46.2588 44.1563C71.8066 44.1563 92.5176 34.4038 92.5176 22.374C92.5176 10.3441 71.8066 0.591797 46.2588 0.591797ZM46.2588 40.7175C22.7275 40.7175 3.65164 32.5049 3.65164 22.374C3.65164 12.2432 22.7277 4.03059 46.2588 4.03059C69.7901 4.03059 88.866 12.2432 88.866 22.374C88.866 32.5049 69.7899 40.7175 46.2588 40.7175ZM40.425 18.5526V15.1131H53.4752V18.5526H48.777V29.635H45.124V18.5526H40.425ZM69.2276 15.1131V29.6351H65.5761L58.9531 20.9903V29.6351H55.3015V15.1131H58.9529L65.5759 23.758V15.1131H69.2276ZM23.1813 29.6351V15.1131H26.8329L30.8899 20.9903L34.9469 15.1131H38.5971V29.6351H34.9469V21.4211L32.1772 25.4306H29.6026L26.8329 21.4211V29.6351H23.1813Z" fill="#FFC10E"/>
</svg>
