<svg width="57" height="62" viewBox="0 0 57 62" fill="none" xmlns="http://www.w3.org/2000/svg">
<path d="M35.961 0.15918C38.1667 0.1879 40.2711 0.579999 42.2363 1.51654C43.9688 2.34756 45.3815 3.5095 46.3458 5.11098C46.9724 6.1682 47.3835 7.32551 47.5579 8.52374C47.9164 10.8239 47.5539 13.0491 46.7443 15.225C46.2685 16.5012 45.6101 17.6981 44.8971 18.8738C43.4444 21.2669 41.5779 23.3411 39.4068 25.1798C36.6215 27.5412 33.5671 29.608 30.2989 31.3429C29.0327 32.0128 27.72 32.5754 26.308 32.9194C25.4429 33.1383 24.5498 33.2442 23.6538 33.2341C22.4743 33.2116 21.5514 32.7084 20.8337 31.8605C20.171 31.0995 19.8295 30.137 19.8741 29.1557C19.8819 28.8828 19.924 28.6116 19.9994 28.3478C20.4266 26.9261 21.007 25.5644 21.8746 24.3226C22.5376 23.3742 23.3279 22.5319 24.3615 21.9294C25.511 21.2588 26.7604 20.9722 28.1118 21.2488C28.5343 21.3416 28.9319 21.5148 29.28 21.7577C30.1696 22.3533 30.1229 23.288 29.6958 23.8849C29.3299 24.4036 28.9208 24.8944 28.4723 25.3528C27.7127 26.1195 26.9057 26.8444 26.118 27.5861C25.421 28.2423 24.766 28.931 24.2349 29.7158C23.9597 30.1229 23.7058 30.5381 23.6298 31.0269C23.5338 31.6401 23.8737 32.0578 24.5341 32.1152C24.8757 32.1413 25.2196 32.109 25.549 32.0197C26.5638 31.7568 27.5061 31.3329 28.4317 30.8759C29.8591 30.1685 31.1765 29.3037 32.4606 28.3915C34.0172 27.2858 35.5305 26.1326 36.9253 24.8501C38.5139 23.391 39.9299 21.8051 41.0135 19.9751C41.8051 18.639 42.3882 17.228 42.6474 15.7145C42.8766 14.3815 42.7487 13.0828 42.0896 11.8591C41.7723 11.2542 41.2759 10.7477 40.6596 10.3999C40.3751 10.2395 40.0612 10.1298 39.734 10.0765C38.5432 9.8786 37.3911 10.0409 36.2589 10.3949C35.0787 10.7646 33.9839 11.304 32.9197 11.8934C30.6101 13.1771 28.2977 14.4602 26.0967 15.9056C24.9932 16.6298 23.9237 17.4003 22.8422 18.1533C21.8652 18.8338 20.895 19.5225 19.8275 20.0788C18.9612 20.541 18.0235 20.8744 17.048 21.0671C15.8392 21.2969 14.7251 21.0834 13.7015 20.4678C12.6393 19.829 11.8957 18.9524 11.5691 17.7924C11.3612 17.06 11.4432 16.3339 11.6224 15.6109C11.8843 14.5494 12.3814 13.5879 13.0012 12.6764C14.5338 10.4249 16.461 8.515 18.702 6.8823C22.0232 4.4629 25.6776 2.59981 29.6305 1.25181C31.66 0.556256 33.8002 0.18685 35.961 0.15918Z" fill="#E20010"/>
<path d="M8.63702 51.6341C8.6257 50.9273 8.53973 50.2917 8.10393 49.7404C7.8917 49.474 7.5979 49.2745 7.26163 49.1685C6.39535 48.8775 5.51307 48.9119 4.65278 49.161C3.96309 49.3608 3.29805 49.633 2.62301 49.8759C2.48974 49.9221 2.36846 49.9814 2.2072 50.0488C1.88934 49.3102 1.57681 48.5934 1.24962 47.8442C1.72341 47.6338 2.16988 47.419 2.63034 47.2348C3.69121 46.8096 4.79139 46.5181 5.94821 46.4525C7.10503 46.3869 8.24653 46.4444 9.2994 46.9701C10.4902 47.5607 11.3498 48.4136 11.7097 49.6548C11.7616 49.8173 11.7927 49.985 11.8023 50.1543C11.8483 51.7658 11.9102 53.3773 11.9176 54.9888C11.9222 56.0901 11.8449 57.1921 11.8103 58.2941C11.8041 58.4452 11.7369 58.5885 11.6224 58.695C10.7994 59.5441 9.79251 60.131 8.65168 60.525C7.42835 60.9432 6.12557 61.1186 4.82604 61.0401C3.62657 60.9776 2.59103 60.5175 1.71541 59.7539C0.839801 58.9903 0.228072 58.0681 0.0574804 56.938C-0.17575 55.3902 0.300706 54.0472 1.48818 52.9421C2.25184 52.2316 3.19276 51.8645 4.25296 51.7346C5.42578 51.5916 6.60259 51.6297 7.7794 51.6328L8.63702 51.6341ZM8.48309 54.1502C8.41397 54.1375 8.3441 54.1285 8.27385 54.1234C7.87403 54.1159 7.46954 54.1028 7.06772 54.1084C6.58593 54.1153 6.10214 54.1172 5.62302 54.1596C5.12791 54.2039 4.64745 54.3394 4.26362 54.6491C3.62657 55.1636 3.43732 55.8354 3.59259 56.5927C3.78583 57.5293 4.34425 58.1836 5.33981 58.4621C5.85314 58.6059 6.39669 58.6274 6.92112 58.5245C7.40857 58.4409 7.86323 58.2365 8.23787 57.9326C8.30129 57.8865 8.35344 57.8282 8.39079 57.7617C8.42815 57.6951 8.44985 57.6218 8.45444 57.5468C8.46976 57.2177 8.51508 56.8893 8.51774 56.5603C8.52308 55.8067 8.51108 55.0531 8.50442 54.2995C8.50042 54.2494 8.4933 54.1996 8.48309 54.1502Z" fill="#E20010"/>
<path d="M48.7172 54.0874C45.8585 54.0874 43.0531 54.0299 40.2083 54.0999C40.223 54.2872 40.2317 54.4645 40.2496 54.6374C40.3229 55.3448 40.4855 56.0322 40.8047 56.681C41.0529 57.2101 41.4382 57.6728 41.9256 58.0271C42.6986 58.5771 43.5808 58.6671 44.5064 58.5553C45.2714 58.4629 45.9838 58.2007 46.6941 57.9366C47.02 57.816 47.3432 57.6868 47.6937 57.5526C48.0269 58.2056 48.3534 58.8475 48.6932 59.5081C48.6306 59.5505 48.572 59.598 48.5067 59.6329C47.1206 60.4034 45.6319 60.8998 44.024 61.0309C42.558 61.1501 41.1586 60.9247 39.8925 60.1649C39.0302 59.6473 38.4265 58.9162 37.9213 58.0983C37.2992 57.0807 36.9226 55.9478 36.8178 54.7792C36.6064 52.6484 37.0893 50.6646 38.2665 48.8278C39.0875 47.5509 40.313 46.8573 41.8469 46.6181C43.257 46.3858 44.7094 46.6123 45.9631 47.26C46.6655 47.6165 47.1546 48.1778 47.5578 48.8071C48.0908 49.6369 48.3714 50.5516 48.506 51.4994C48.6153 52.2636 48.6499 53.0372 48.7152 53.8095C48.7232 53.8888 48.7172 53.9712 48.7172 54.0874ZM45.2521 51.6617C45.0862 50.9493 44.9729 50.2213 44.4751 49.6176C44.2255 49.3175 43.8748 49.1054 43.4802 49.0157C42.4307 48.7553 41.3758 49.2086 40.9247 50.1395C40.7634 50.4711 40.6688 50.8313 40.5515 51.1803C40.4989 51.3383 40.4649 51.5025 40.4229 51.6617C40.7048 51.7317 44.9636 51.7348 45.2534 51.6636L45.2521 51.6617Z" fill="#E20010"/>
<path d="M29.9637 43.2054L33.3749 42.7109V46.6363C34.1319 46.6787 34.8529 46.6325 35.5779 46.7056V49.1237C34.8449 49.135 34.1272 49.1144 33.3789 49.1568C33.3789 49.293 33.3789 49.3947 33.3789 49.4965C33.3727 51.8241 33.3673 54.1519 33.3629 56.48C33.3629 56.8465 33.3942 57.2136 33.4295 57.5788C33.4855 58.1408 33.818 58.4973 34.3991 58.634C34.7196 58.7102 35.0488 58.7533 35.374 58.8113L35.7005 58.8738V60.926C35.6638 60.943 35.6248 60.9552 35.5846 60.9622C34.6163 61.0028 33.6521 60.9791 32.7158 60.7125C31.8016 60.454 31.0393 59.9858 30.5221 59.214C30.2283 58.777 30.079 58.2856 30.0144 57.778C29.9753 57.4601 29.9562 57.1403 29.9571 56.8202C29.9571 52.3998 29.9597 47.9797 29.9651 43.5601L29.9637 43.2054Z" fill="#E20010"/>
<path d="M50.5925 43.2086L53.8911 42.6729V43.0993C53.8911 47.1139 53.8929 51.1286 53.8964 55.1432C53.8964 55.8781 53.9031 56.613 53.9091 57.3484C53.9144 58.074 54.1969 58.4436 54.9366 58.6596C55.188 58.7247 55.4432 58.776 55.7009 58.8132C55.8582 58.8407 56.0175 58.8538 56.2087 58.8756V60.9722C56.191 60.986 56.1699 60.9957 56.1474 61.0003C55.2105 61.0359 54.2776 61.0216 53.3666 60.7718C52.8147 60.623 52.3007 60.3706 51.856 60.0301C51.0277 59.3951 50.6905 58.5441 50.6039 57.5845C50.5785 57.3035 50.5819 57.0194 50.5825 56.7372C50.5825 52.3454 50.5859 47.9541 50.5925 43.5632V43.2086Z" fill="#E20010"/>
<path d="M23.332 60.7868H20.0001C19.9961 60.6563 19.9895 60.5371 19.9888 60.4191C19.9853 58.5435 19.9824 56.6679 19.9802 54.7923C19.9762 53.2939 19.9662 51.7954 19.9668 50.2969C19.9679 50.0252 19.9902 49.7539 20.0335 49.4853C20.0828 49.1787 20.254 48.9233 20.4919 48.7079C21.8007 47.5142 23.3687 46.7986 25.1565 46.4902C26.277 46.2977 27.4253 46.2962 28.5464 46.4858C28.6057 46.4958 28.665 46.5083 28.723 46.5221C28.7516 46.5289 28.7789 46.542 28.8342 46.562C28.4557 47.4636 27.9946 48.3252 27.5601 49.1768C27.041 49.1768 26.5493 49.1625 26.0588 49.18C25.2118 49.2063 24.3804 49.4004 23.6192 49.7494C23.4033 49.8487 23.3227 49.9723 23.3233 50.2052C23.3327 53.6183 23.3349 57.0315 23.33 60.4447L23.332 60.7868Z" fill="#E20010"/>
<path d="M17.5425 46.7686C17.5778 51.4463 17.5392 56.0965 17.5712 60.7755H14.3106C14.3026 60.6625 14.2866 60.5444 14.2866 60.4264C14.2866 57.4857 14.2866 54.5446 14.2866 51.603C14.2866 50.255 14.2986 48.907 14.3046 47.559C14.3046 47.4566 14.3046 47.3542 14.3046 47.2256L17.5425 46.7686Z" fill="#E20010"/>
<path d="M15.7768 45.3922C14.1848 45.3884 13.1879 43.9037 13.8483 42.502C14.2541 41.6423 14.9511 41.3157 15.9567 41.3214C17.3041 41.332 18.303 42.5876 17.9818 43.8144C17.7252 44.7947 16.8856 45.3947 15.7768 45.3922Z" fill="#E20010"/>
</svg>
