<svg width="126" height="33" viewBox="0 0 126 33" fill="none" xmlns="http://www.w3.org/2000/svg">
<path d="M123.681 8.51074C123.961 8.5126 124.235 8.58015 124.48 8.70721C124.736 8.83594 124.948 9.03158 125.088 9.27042C125.229 9.50342 125.304 9.76676 125.305 10.0349C125.304 10.3004 125.23 10.5613 125.09 10.7922C124.951 11.0302 124.743 11.2261 124.489 11.3566C124.242 11.4877 123.964 11.5566 123.68 11.5566C123.397 11.5566 123.118 11.4877 122.871 11.3566C122.617 11.2259 122.408 11.0301 122.269 10.7922C122.127 10.5606 122.052 10.2983 122.052 10.0313C122.052 9.76429 122.127 9.50195 122.269 9.27042C122.409 9.03125 122.621 8.83553 122.878 8.70721C123.123 8.57928 123.4 8.51169 123.681 8.51074ZM123.681 8.76317C123.448 8.76495 123.22 8.82146 123.017 8.92749C122.803 9.03501 122.626 9.19836 122.509 9.39783C122.39 9.59065 122.328 9.80931 122.328 10.0319C122.328 10.2545 122.39 10.4731 122.509 10.6659C122.627 10.865 122.803 11.0283 123.017 11.1363C123.222 11.247 123.455 11.3054 123.692 11.3054C123.928 11.3054 124.161 11.247 124.366 11.1363C124.58 11.0289 124.757 10.8655 124.874 10.6659C124.991 10.4736 125.053 10.2562 125.053 10.0349C125.052 9.81139 124.99 9.59195 124.872 9.39783C124.754 9.19836 124.578 9.03501 124.363 8.92749C124.154 8.81902 123.919 8.76245 123.681 8.76317ZM122.968 10.8803V9.23708H123.568C123.718 9.23056 123.869 9.24623 124.014 9.28352C124.104 9.31159 124.181 9.3674 124.234 9.44189C124.286 9.51149 124.315 9.59461 124.316 9.68003C124.317 9.73818 124.305 9.79585 124.281 9.84965C124.258 9.90344 124.223 9.95225 124.179 9.99319C124.083 10.0846 123.953 10.1383 123.815 10.1432C123.871 10.1627 123.921 10.1922 123.964 10.2301C124.062 10.3292 124.147 10.4383 124.218 10.5552L124.432 10.8755H124.086L123.931 10.6171C123.858 10.4745 123.758 10.3454 123.636 10.2361C123.57 10.194 123.49 10.1739 123.41 10.1789H123.245V10.8803H122.968ZM123.25 9.95747H123.592C123.708 9.96836 123.826 9.94461 123.927 9.8896C123.956 9.86773 123.979 9.8399 123.995 9.80829C124.01 9.77669 124.017 9.74216 124.016 9.70742C124.017 9.66092 124.002 9.61539 123.973 9.57763C123.943 9.53841 123.902 9.50852 123.854 9.4919C123.761 9.46793 123.666 9.45828 123.57 9.46332H123.25V9.95747Z" fill="#58595B"/>
<path d="M19.9254 9.3586C22.6206 9.3586 24.8055 7.31149 24.8055 4.78624C24.8055 2.26099 22.6206 0.213867 19.9254 0.213867C17.2303 0.213867 15.0454 2.26099 15.0454 4.78624C15.0454 7.31149 17.2303 9.3586 19.9254 9.3586Z" fill="#F16522"/>
<path d="M26.8376 29.4748C29.5327 29.4748 31.7176 27.4277 31.7176 24.9025C31.7176 22.3772 29.5327 20.3301 26.8376 20.3301C24.1424 20.3301 21.9575 22.3772 21.9575 24.9025C21.9575 27.4277 24.1424 29.4748 26.8376 29.4748Z" fill="#F16522"/>
<path d="M4.88003 25.2082C7.5752 25.2082 9.76007 23.1611 9.76007 20.6358C9.76007 18.1106 7.5752 16.0635 4.88003 16.0635C2.18486 16.0635 0 18.1106 0 20.6358C0 23.1611 2.18486 25.2082 4.88003 25.2082Z" fill="#F16522"/>
<path d="M5.53042 14.3874C7.28228 14.3874 8.70244 13.0568 8.70244 11.4154C8.70244 9.77399 7.28228 8.44336 5.53042 8.44336C3.77856 8.44336 2.3584 9.77399 2.3584 11.4154C2.3584 13.0568 3.77856 14.3874 5.53042 14.3874Z" fill="#F6921E"/>
<path d="M28.2204 13.1687C29.9722 13.1687 31.3924 11.8381 31.3924 10.1967C31.3924 8.55524 29.9722 7.22461 28.2204 7.22461C26.4685 7.22461 25.0483 8.55524 25.0483 10.1967C25.0483 11.8381 26.4685 13.1687 28.2204 13.1687Z" fill="#F6921E"/>
<path d="M17.8107 31.7605C19.5626 31.7605 20.9827 30.4299 20.9827 28.7884C20.9827 27.147 19.5626 25.8164 17.8107 25.8164C16.0588 25.8164 14.6387 27.147 14.6387 28.7884C14.6387 30.4299 16.0588 31.7605 17.8107 31.7605Z" fill="#F6921E"/>
<path d="M10.3279 29.1698C11.5407 29.1698 12.5239 28.2486 12.5239 27.1123C12.5239 25.9759 11.5407 25.0547 10.3279 25.0547C9.11502 25.0547 8.13184 25.9759 8.13184 27.1123C8.13184 28.2486 9.11502 29.1698 10.3279 29.1698Z" fill="#FFC10E"/>
<path d="M30.3347 18.9599C31.5475 18.9599 32.5307 18.0387 32.5307 16.9023C32.5307 15.7659 31.5475 14.8447 30.3347 14.8447C29.1219 14.8447 28.1387 15.7659 28.1387 16.9023C28.1387 18.0387 29.1219 18.9599 30.3347 18.9599Z" fill="#FFC10E"/>
<path d="M10.8161 8.29189C12.029 8.29189 13.0121 7.37069 13.0121 6.23432C13.0121 5.09796 12.029 4.17676 10.8161 4.17676C9.60331 4.17676 8.62012 5.09796 8.62012 6.23432C8.62012 7.37069 9.60331 8.29189 10.8161 8.29189Z" fill="#FFC10E"/>
<path d="M47.7163 32.194V9.07976H50.3533V12.0006C50.9786 10.8797 51.8046 10.0192 52.8314 9.41911C53.8602 8.81857 55.0507 8.50622 56.2627 8.51893C58.5985 8.51893 60.4747 9.28337 61.8913 10.8123C63.3078 12.3411 64.0157 14.3681 64.0149 16.8933C64.0149 19.4636 63.3218 21.5049 61.9358 23.0171C60.5497 24.5294 58.6951 25.2863 56.372 25.2879C55.0376 25.2879 53.8752 24.9961 52.8848 24.4127C51.8944 23.8292 51.0862 22.96 50.4601 21.805V32.194H47.7163ZM50.3851 16.8885C50.3851 18.6349 50.8866 20.0336 51.8898 21.0846C52.8929 22.1356 54.2217 22.6635 55.8764 22.6683C57.4912 22.6683 58.762 22.1868 59.6889 21.2239C60.6158 20.261 61.0788 18.9246 61.0779 17.2148C61.0779 15.3009 60.6149 13.8006 59.6889 12.7138C58.7629 11.6271 57.4738 11.0833 55.8217 11.0825C54.1341 11.0825 52.8065 11.5985 51.8389 12.6305C50.8714 13.6624 50.388 15.0834 50.3889 16.8933L50.3851 16.8885Z" fill="#58595B"/>
<path d="M81.8903 9.07952V24.622H79.1999V21.8024C78.5509 22.9344 77.7219 23.798 76.7129 24.3934C75.6993 24.9895 74.524 25.3 73.3273 25.2876C71.0025 25.2876 69.1293 24.5204 67.7077 22.986C66.286 21.4515 65.5752 19.4205 65.5752 16.893C65.5752 14.3338 66.2657 12.298 67.6467 10.7858C69.0276 9.27361 70.8742 8.51948 73.1863 8.52345C74.5418 8.52345 75.7186 8.81518 76.7167 9.39863C77.7147 9.98209 78.5196 10.8509 79.1313 12.0051V9.07952H81.8903ZM79.1999 16.9954C79.1999 15.2403 78.7013 13.8273 77.7041 12.7565C76.7069 11.6856 75.406 11.1506 73.8014 11.1514C72.1382 11.1514 70.8403 11.6439 69.9075 12.6291C68.9747 13.6142 68.5087 14.9903 68.5096 16.7573C68.5096 18.637 68.9785 20.0865 69.9164 21.1058C70.8543 22.1251 72.1848 22.6347 73.9081 22.6347C75.5602 22.6347 76.8552 22.1393 77.7931 21.1487C78.731 20.158 79.1999 18.7736 79.1999 16.9954Z" fill="#58595B"/>
<path d="M100.878 9.08015V24.3511C100.878 26.038 100.76 27.2386 100.525 27.9531C100.289 28.6645 99.8906 29.3191 99.357 29.8713C98.5979 30.6558 97.6473 31.2564 96.5865 31.6217C95.4953 32.0035 94.2418 32.1944 92.8261 32.1944C90.3691 32.1944 88.4544 31.6566 87.0819 30.581C85.7094 29.5054 84.9926 27.9821 84.9316 26.011H88.0465V26.2146C88.0465 27.3815 88.4654 28.2821 89.3033 28.9164C90.1412 29.5506 91.3274 29.8682 92.8617 29.8689C93.9707 29.8689 94.9179 29.6963 95.7033 29.351C96.4599 29.0289 97.0885 28.4908 97.499 27.8138C97.7573 27.4012 97.9366 26.9494 98.0289 26.479C98.1357 25.9693 98.1886 25.239 98.1878 24.288V21.6685C97.5625 22.7798 96.7428 23.632 95.7287 24.2249C94.7043 24.8217 93.5189 25.1312 92.3127 25.1168C89.987 25.1168 88.1138 24.3579 86.693 22.8401C85.2722 21.3224 84.5614 19.3065 84.5605 16.7925C84.5605 14.2522 85.2506 12.2395 86.6307 10.7543C88.0109 9.26908 89.8574 8.52448 92.1703 8.52051C93.5157 8.52051 94.6959 8.81224 95.7109 9.39569C96.7259 9.97914 97.5282 10.8369 98.1179 11.9688V9.08015H100.878ZM98.1878 16.8937C98.1878 15.1473 97.6926 13.743 96.7022 12.6809C95.7118 11.6188 94.4079 11.0865 92.7905 11.0841C91.1266 11.0841 89.8286 11.5767 88.8967 12.5618C87.9647 13.5469 87.4987 14.923 87.4987 16.69C87.4987 18.5706 87.9677 20.0201 88.9056 21.0386C89.8434 22.057 91.1744 22.5667 92.8985 22.5675C94.5506 22.5675 95.8456 22.0666 96.7835 21.0648C97.7214 20.063 98.1895 18.6726 98.1878 16.8937Z" fill="#58595B"/>
<path d="M119.937 9.07952V24.622H117.246V21.8024C116.598 22.9351 115.768 23.7988 114.757 24.3934C113.743 24.9895 112.568 25.3 111.371 25.2876C109.046 25.2876 107.172 24.5204 105.752 22.986C104.331 21.4515 103.62 19.4205 103.619 16.893C103.619 14.3338 104.309 12.298 105.689 10.7858C107.069 9.27361 108.916 8.51948 111.229 8.52345C112.585 8.52345 113.762 8.81518 114.761 9.39863C115.759 9.98209 116.564 10.8509 117.175 12.0051V9.07952H119.937ZM117.246 16.9954C117.246 15.2403 116.748 13.8273 115.752 12.7565C114.756 11.6856 113.455 11.1506 111.849 11.1514C110.185 11.1514 108.887 11.6439 107.955 12.6291C107.023 13.6142 106.557 14.9903 106.557 16.7573C106.557 18.637 107.026 20.0865 107.964 21.1058C108.902 22.1251 110.234 22.6347 111.961 22.6347C113.613 22.6347 114.908 22.1393 115.846 21.1487C116.784 20.158 117.251 18.7736 117.246 16.9954Z" fill="#58595B"/>
</svg>
