<svg width="106" height="46" viewBox="0 0 106 46" fill="none" xmlns="http://www.w3.org/2000/svg">
<path d="M1.69447 38.6951L0.924255 42.4477C0.82156 42.7364 0.82156 42.977 0.82156 43.2656C0.82156 44.0835 1.33503 44.4684 2.0539 44.4684C2.97815 44.4684 3.64567 43.891 3.90241 42.4477L4.72397 38.6951H5.54553L4.77532 42.4477C4.41588 44.324 3.44028 45.0938 2.00255 45.0938C0.82156 45.0938 0 44.5165 0 43.2175L0.0513475 42.3034L0.770212 38.647H1.69447V38.6951ZM6.72652 45.0938L7.34269 41.8704C7.49673 41.3412 7.49673 40.9082 7.59943 40.5233H8.31829L8.16425 41.3893C8.57503 40.7158 9.24255 40.379 9.96141 40.379C10.5262 40.379 11.1424 40.7158 11.1424 41.6299L11.0911 42.3996L10.5262 44.9976H9.65333L10.1668 42.3996L10.2181 41.7742C10.2181 41.3412 10.0128 41.0044 9.44794 41.0044C8.88311 41.0044 8.01021 41.6299 7.80482 42.7845L7.34269 44.9976H6.72652V45.0938ZM12.9396 45.0938L13.8638 40.5233H14.7367L13.8125 45.0938H12.9396ZM14.0179 39.2243C14.0179 38.9838 14.3259 38.6951 14.5827 38.6951C14.8908 38.6951 15.0962 38.8876 15.0962 39.1762C15.0962 39.513 14.8908 39.7055 14.5313 39.7055C14.2233 39.7055 14.0179 39.513 14.0179 39.2243ZM18.3311 39.3206L18.1257 40.5233H19.2553L19.1013 41.1007H17.9716L17.5608 43.3137C17.4581 43.6024 17.4581 43.7948 17.4581 44.0835C17.4581 44.324 17.6122 44.4684 17.9203 44.4684H18.2797L18.177 45.0938L17.5608 45.1419C16.842 45.1419 16.5339 44.757 16.5339 44.2759L16.5852 43.4099L17.0987 41.1007H16.3798L16.5339 40.5233H17.2528L17.4581 39.513L18.3311 39.3206ZM23.7225 44.8051C23.3631 44.9976 22.7469 45.1419 22.1308 45.1419C20.8471 45.1419 20.2823 44.324 20.2823 43.3137C20.2823 41.9666 21.3606 40.379 22.901 40.379C23.8252 40.379 24.3387 40.9082 24.3387 41.5336C24.3387 42.7364 22.901 43.0732 21.1038 42.977C21.0525 43.2175 21.1038 43.6024 21.2065 43.891C21.4119 44.2759 21.7713 44.4684 22.2848 44.4684C22.8496 44.4684 23.2604 44.2759 23.5685 44.1316L23.7225 44.8051ZM22.7469 41.0044C21.9767 41.0044 21.4119 41.7261 21.2065 42.3996C22.4902 42.3996 23.4658 42.2553 23.4658 41.5336C23.4658 41.1969 23.2091 41.0044 22.7469 41.0044ZM30.8085 38.3584L29.7302 43.6024C29.6275 44.0835 29.5248 44.6127 29.5248 44.9976H28.7032L28.8573 44.1316C28.4465 44.8051 27.779 45.1419 27.1628 45.1419C26.1872 45.1419 25.7251 44.4203 25.7251 43.4581C25.7251 41.8704 27.0088 40.379 28.7032 40.379C29.0113 40.379 29.3708 40.4271 29.5762 40.5233L29.9869 38.3584H30.8085ZM29.4221 41.1969C29.2681 41.0525 29.0113 41.0044 28.6519 41.0044C27.5223 41.0044 26.5466 42.111 26.5466 43.3137C26.5466 43.891 26.8034 44.4684 27.5223 44.4684C28.1384 44.4684 28.96 43.7948 29.1654 42.7845L29.4221 41.1969ZM35.7892 38.7914C36.2513 38.6951 36.7648 38.647 37.2269 38.647C37.9458 38.647 38.4593 38.7914 38.8187 39.08C39.1268 39.3687 39.3322 39.7055 39.3322 40.0903C39.3322 40.9082 38.6133 41.5336 37.8944 41.7261C38.562 41.9185 39.0241 42.3996 39.0241 43.1213C39.0241 43.7948 38.6647 44.2759 38.2539 44.6127C37.7404 44.9976 36.9702 45.1419 36.0459 45.1419L34.6082 45.0938L35.7892 38.7914ZM35.5325 44.4203L36.2513 44.4684C37.2269 44.4684 38.2025 44.0835 38.2025 43.0732C38.2025 42.3034 37.535 41.9666 36.7648 41.9666H36.0973L35.5325 44.4203ZM36.1486 41.3893H36.8161C37.7404 41.3893 38.562 40.9082 38.562 40.1866C38.562 39.5611 38.0485 39.3206 37.3296 39.3206L36.6108 39.3687L36.1486 41.3893ZM43.8507 45.0938L44.0048 43.9392C43.4913 44.8533 42.7725 45.19 42.1049 45.19C41.2834 45.19 40.7699 44.5165 40.7699 43.7467C40.7699 42.111 42.0022 40.5233 44.1075 40.5233C44.5696 40.5233 45.1344 40.5714 45.4425 40.7158L44.929 43.0732C44.775 43.891 44.7237 44.6608 44.7237 45.1419H43.8507V45.0938ZM44.4156 41.0525L43.8507 41.0044C42.6184 41.0044 41.5401 42.2072 41.5401 43.4581C41.5401 43.9873 41.7455 44.4684 42.413 44.4684C43.1319 44.4684 43.9021 43.6024 44.1075 42.3996L44.4156 41.0525ZM46.7776 45.0938L47.4451 41.8704L47.6505 40.5233H48.3693L48.2153 41.3893C48.6261 40.7158 49.2936 40.379 50.0124 40.379C50.5773 40.379 51.2448 40.7158 51.2448 41.6299L51.1421 42.3996L50.5773 44.9976H49.7044L50.2178 42.3996L50.2692 41.7742C50.2692 41.3412 50.0638 41.0044 49.499 41.0044C48.9342 41.0044 48.0612 41.6299 47.8559 42.7845L47.4451 44.9976H46.7776V45.0938ZM53.0933 45.0938L54.4283 38.4546H55.2499L54.377 42.5921C54.531 42.4477 54.7364 42.2553 54.7878 42.111L56.5336 40.5233H57.5092L55.4039 42.3996L56.7903 45.0938H55.8661L54.7364 42.8807L54.0689 43.4099L53.7095 45.1419H53.0933V45.0938ZM61.4116 45.0938L62.1818 41.1007H61.5656L61.6683 40.5233H62.3358L62.3872 40.2347C62.5412 39.5611 62.7466 39.0319 63.2088 38.647C63.4655 38.3584 63.9276 38.214 64.3384 38.214C64.6978 38.214 64.9032 38.3103 65.0059 38.3584L64.7492 38.9838C64.6465 38.8876 64.4924 38.8876 64.287 38.8876C63.6195 38.8876 63.2601 39.513 63.1061 40.2347V40.5233H64.1844L64.0303 41.1007H63.0034L62.1818 45.0938H61.4116ZM69.6272 42.3034C69.6272 43.7467 68.5489 45.19 66.9058 45.19C65.7248 45.19 65.0573 44.324 65.0573 43.3137C65.0573 41.8704 66.1869 40.4271 67.7787 40.4271C69.0624 40.379 69.6272 41.3412 69.6272 42.3034ZM65.9302 43.2656C65.9302 43.9873 66.341 44.5165 67.0598 44.5165C68.0868 44.5165 68.8056 43.3137 68.8056 42.3034C68.8056 41.7742 68.4975 41.0525 67.6246 41.0525C66.649 41.0044 65.9302 42.2072 65.9302 43.2656ZM71.1676 45.0938L71.7324 42.111C71.8865 41.5336 71.9378 40.9082 71.9892 40.5233H72.708L72.6053 41.5336C72.8621 40.9082 73.4269 40.4271 74.0944 40.4271H74.2998L74.1458 41.1969H73.9404C73.2215 41.1969 72.6053 41.9666 72.3486 43.0732L71.9378 45.0938H71.1676ZM79.3832 43.0732L78.3049 45.0938H77.432L80.975 38.7914H81.9506L82.9262 45.0938H82.0533L81.7452 43.0732H79.3832ZM81.6938 42.3996L81.3858 40.5714C81.3344 40.2347 81.3344 39.7536 81.2317 39.4168L80.6669 40.5714L79.6913 42.3996H81.6938ZM84.6207 45.0938L85.3909 41.1007H84.7747L84.9287 40.5233H85.5449L85.6476 40.2347C85.7503 39.5611 86.007 39.0319 86.4178 38.647C86.6746 38.3584 87.1367 38.214 87.5475 38.214C87.9069 38.214 88.1123 38.3103 88.215 38.3584L88.0096 38.9838C87.8555 38.8876 87.7015 38.8876 87.4961 38.8876C86.8286 38.8876 86.4692 39.513 86.3665 40.2347L86.2638 40.4271H87.3421L87.188 41.0525H86.1097L85.3395 44.9976H84.6207V45.0938ZM88.2663 45.0938L88.8311 42.111L89.1392 40.5233H89.8581L89.7041 41.5336C90.0121 40.9082 90.577 40.4271 91.1931 40.4271H91.4499L91.2958 41.1969H91.0904C90.3716 41.1969 89.7041 41.9666 89.4987 43.0732L89.0879 45.0938H88.2663ZM92.3741 45.0938L93.2984 40.5233H94.1713L93.247 45.0938H92.3741ZM93.4524 39.2243C93.4524 38.9838 93.6578 38.6951 94.0172 38.6951C94.274 38.6951 94.5307 38.8876 94.5307 39.1762C94.5307 39.513 94.274 39.7055 93.9145 39.7055C93.6578 39.7055 93.4524 39.513 93.4524 39.2243ZM98.8952 44.8533C98.5872 44.9976 98.0737 45.1419 97.4575 45.1419C96.1738 45.1419 95.609 44.324 95.609 43.4099C95.609 41.8704 96.79 40.4271 98.5358 40.4271C98.9466 40.4271 99.4087 40.5714 99.5114 40.6677L99.306 41.245C99.1006 41.1969 98.8952 41.0525 98.5358 41.0525C97.2521 41.0525 96.4306 42.2072 96.4306 43.2656C96.4306 43.9873 96.8927 44.4684 97.6629 44.4684C98.1764 44.4684 98.5358 44.324 98.7926 44.1797L98.8952 44.8533ZM103.773 45.0938L103.876 43.9392C103.414 44.8533 102.695 45.19 102.027 45.19C101.155 45.19 100.692 44.5165 100.692 43.7467C100.692 42.111 101.873 40.5233 104.03 40.5233C104.492 40.5233 105.057 40.5714 105.314 40.7158L104.852 43.0732C104.698 43.891 104.595 44.6608 104.595 45.1419H103.773V45.0938ZM104.338 41.0525L103.773 41.0044C102.541 41.0044 101.463 42.2072 101.463 43.4581C101.463 43.9873 101.668 44.4684 102.336 44.4684C103.054 44.4684 103.825 43.6024 104.03 42.3996L104.338 41.0525ZM20.8984 11.7534L17.8176 25.128C16.8933 28.0147 15.1989 30.0353 11.6045 30.1796C8.52368 30.1796 7.29134 28.2552 8.06155 24.2139L10.783 11.7534H6.26439L3.1322 26.0421C2.56737 31.5267 6.00766 33.0662 11.2451 32.9219C16.2258 32.7776 19.6661 30.6607 21.6173 26.427L25.0576 11.7534H20.8984ZM58.9469 18.4888L60.7441 25.4167H54.0689L58.9469 18.4888ZM60.3333 11.7534L45.1858 32.4408H49.2936L52.169 28.4476H61.617L62.5412 32.4408H67.4192L62.0278 11.7534H60.3333ZM75.07 32.5851H83.7477C91.5526 32.2484 93.247 28.9287 90.731 23.3961L81.2317 6.02826L75.07 32.5851ZM96.3792 0.591797C88.5744 0.928569 86.9313 4.29629 89.4473 9.78086L98.8952 27.1487L105.057 0.591797H96.3792ZM31.0139 29.8428L32.6057 22.8669H34.4028C37.0215 22.8669 39.2295 23.7328 39.2295 26.0421C39.2295 28.8325 36.3027 29.9872 33.0164 29.9872L31.0139 29.8428ZM34.4542 14.3994H36.6108C38.9727 14.3994 40.4105 14.9287 40.4105 16.7087C40.4105 18.8256 38.2539 20.1727 35.019 20.1727H33.2218L34.4542 14.3994ZM31.0139 11.7534L30.6544 11.8015L26.0845 32.537H34.8649C37.8431 32.537 39.5376 31.7673 40.6672 31.1418C42.4644 30.0353 43.7481 28.2552 44.2102 26.0902C44.775 23.1555 42.6184 21.616 39.9483 21.3754C42.6698 20.7981 44.9804 18.9218 45.1344 16.2276C45.4939 11.7534 40.1024 11.7534 40.1024 11.7534H31.0139Z" fill="#D71920"/>
</svg>
