<svg width="94" height="48" viewBox="0 0 94 48" fill="none" xmlns="http://www.w3.org/2000/svg">
<path fill-rule="evenodd" clip-rule="evenodd" d="M44.5993 1.36058C43.8255 1.74256 43.041 1.98229 42.7412 1.92849C42.1039 1.81422 42.0794 2.01802 42.6697 2.51922C43.0662 2.856 43.0804 2.95155 42.7958 3.35957C42.3149 4.04928 42.1312 5.52511 42.4273 6.32178C42.6284 6.86322 42.6215 7.06056 42.397 7.20302C41.9235 7.50322 40.5323 7.20345 40.101 6.70806C39.5896 6.12078 39.5864 4.92729 40.0941 4.12073C40.4794 3.5087 40.4752 3.48158 39.9154 2.95628C38.6165 1.7374 37.0073 1.91408 35.3662 3.45533C33.6488 5.06868 32.5985 7.54992 32.5932 10.0071C32.5904 11.2531 32.7264 11.4612 33.2326 10.9862C33.9799 10.2849 33.2771 13.4879 32.1265 16.0244C31.7465 16.8631 31.4754 17.5868 31.5245 17.6328C31.88 17.9662 35.6834 15.6244 37.3949 14.0184C38.1379 13.3211 38.8101 12.7508 38.889 12.7508C38.9679 12.7508 38.9626 13.0999 38.8773 13.5266C38.7275 14.2766 38.7392 14.294 39.2311 14.047C40.2418 13.5393 41.5469 12.2481 41.9819 11.3256C42.5436 10.1338 42.7665 10.1235 42.5626 11.2983C42.2452 13.1268 40.7802 15.206 38.9245 16.4619C38.5613 16.7077 37.4809 17.2283 36.5237 17.6186L34.7835 18.3286L35.923 18.8027C36.6131 19.0897 37.7185 19.3166 38.7266 19.3777C40.3906 19.4788 40.3913 19.4786 41.1598 18.714L41.9283 17.9492L42.2193 19.0876C42.4947 20.1649 42.4812 20.2647 41.9656 20.9536C41.6661 21.3541 41.4063 21.7113 41.3882 21.7479C41.3699 21.7842 40.3376 22.0089 39.094 22.2471C36.5244 22.7393 32.9145 24.0006 30.476 25.2584C28.0217 26.5244 24.6547 29.0145 23.4345 30.466C23.1313 30.8267 23.1561 30.8437 23.7785 30.7012C24.1475 30.6169 25.0719 30.2824 25.8328 29.9584C30.7989 27.8425 37.0518 26.1739 41.9874 25.6473C44.71 25.3568 51.1881 25.4859 53.3447 25.8739C58.634 26.8251 60.8461 27.495 67.8757 30.2738C68.6782 30.5913 69.3937 30.7957 69.4652 30.7283C69.8021 30.4122 65.5453 27.0357 63.2059 25.7633C59.6701 23.84 56.3412 22.6592 52.8232 22.081C51.0407 21.7881 50.4414 21.5923 49.8394 21.1062C49.4253 20.7717 48.935 20.498 48.7501 20.498C48.2621 20.498 48.3366 19.8487 48.9756 18.5335C49.5798 17.2887 50.0149 15.2073 50.0176 13.5469L50.0195 12.5137L50.7863 13.0627C51.9979 13.9297 52.3322 13.8148 52.1614 12.5894C52.083 12.0271 52.0747 11.6157 52.1431 11.6748C52.2112 11.734 52.7877 12.5146 53.4239 13.4091C54.6138 15.0825 56.4019 16.5932 58.218 17.4594C59.2871 17.9694 59.3564 17.8848 58.853 16.6825C58.3705 15.5295 57.5908 12.3415 57.5889 11.5135C57.5873 10.8341 57.8728 10.5924 58.1607 11.0293C58.8562 12.0852 58.9372 9.32445 58.27 7.29814C57.6628 5.45259 56.1293 3.32169 54.95 2.68406C53.611 1.96013 51.8605 2.10065 50.8916 3.01008C50.2197 3.64062 50.2057 3.68968 50.5634 4.16871C51.0361 4.80204 51.0443 6.05515 50.5797 6.67729C50.1587 7.24154 49.5608 7.30954 49.5608 6.79328C49.5608 6.18125 48.6857 4.6981 48.1339 4.37488C47.8466 4.20659 47.3054 4.00968 46.9313 3.93716L46.2511 3.80546L46.7832 3.3062C47.1866 2.92766 47.476 2.83706 47.9794 2.93154C48.5547 3.03957 48.6435 2.99136 48.6435 2.57129C48.6435 2.30466 48.4628 1.92656 48.2422 1.73116C48.0215 1.53554 47.7078 1.2235 47.5452 1.03757C47.0925 0.520448 46.0752 0.632136 44.5993 1.36058ZM45.8915 17.1321C45.8915 17.293 46.2011 17.969 46.5795 18.6344C46.9579 19.2998 47.2675 19.9355 47.2675 20.0469C47.2675 20.1586 46.996 20.5527 46.6639 20.9228L46.0606 21.5957L45.5746 21.1705C45.3074 20.9366 44.8041 20.6788 44.4562 20.5976C44.108 20.5167 43.7624 20.3579 43.6879 20.2449C43.6136 20.132 43.9757 19.4737 44.4929 18.782C45.0098 18.0904 45.4329 17.3703 45.4329 17.182C45.4329 16.9937 45.5361 16.8396 45.6622 16.8396C45.7883 16.8396 45.8915 16.9713 45.8915 17.1321ZM48.1238 34.2789C46.0399 34.7657 44.4298 36.0033 43.6076 37.7498C41.776 41.6415 43.2676 45.9024 47.0045 47.4536C48.4323 48.0463 51.4911 47.9053 53.0581 47.1745L54.1474 46.6664V43.4815V40.2963H52.0644C50.9187 40.2963 50.0206 40.3688 50.0688 40.4577C51.179 42.507 51.4163 43.1625 51.3516 44.0018L51.2808 44.9231L49.8959 44.9859C48.1786 45.064 47.1717 44.5196 46.4075 43.1003C45.8415 42.0491 45.7184 40.3238 46.1355 39.2881C46.6885 37.9149 48.3252 36.8531 49.8894 36.8531C50.8744 36.8531 52.6691 37.4053 53.5167 37.9691L54.1474 38.3888V36.8942C54.1474 35.9095 54.0428 35.3179 53.841 35.1608C52.8849 34.4162 49.6631 33.9191 48.1238 34.2789ZM61.7139 34.2565C58.8872 35.0635 57.1294 37.338 56.948 40.4235C56.8177 42.642 57.2759 44.1918 58.4874 45.63C60.0843 47.5259 62.6278 48.2754 65.194 47.6066C66.4055 47.2907 68.2284 45.6593 68.985 44.2136C69.5549 43.1242 69.6262 42.7554 69.6189 40.9307C69.6115 39.1301 69.5317 38.7236 68.9754 37.6565C67.5856 34.9912 64.3869 33.4936 61.7139 34.2565ZM0.368991 35.271C0.571947 35.727 0.988638 36.3455 1.29502 36.6457C1.84977 37.1893 1.85206 37.211 1.91352 42.456L1.97498 47.7207L4.75491 47.7067C8.07789 47.6899 9.23371 47.3568 10.8303 45.9552C13.6245 43.5025 13.7297 38.9324 11.0498 36.4176C9.44699 34.9135 8.44872 34.6529 3.85411 34.5382L0 34.442L0.368991 35.271ZM19.3696 34.7446C18.9286 35.2951 13.0358 47.6268 13.1585 47.742C13.3701 47.9406 14.9431 47.4463 15.7496 46.9277C16.1695 46.6578 16.7314 46.072 16.9986 45.6261C17.4047 44.948 17.6061 44.8155 18.2303 44.8155C19.4359 44.8155 21.1731 45.3948 22.6463 46.2883C23.9362 47.0708 26.3096 47.9834 26.5261 47.7803C26.5799 47.7299 25.9635 46.2915 25.1563 44.5841C24.3493 42.8767 22.9632 39.9305 22.0759 38.0367C20.8857 35.4961 20.3491 34.5767 20.028 34.5294C19.7888 34.4941 19.4925 34.5909 19.3696 34.7446ZM28.4625 41.1674V47.8487L29.8958 47.7848L31.3291 47.7207L31.4438 44.2052L31.5585 40.6895L33.7447 42.5912C34.9468 43.637 36.7945 45.2433 37.8506 46.1605C38.9064 47.0776 39.8577 47.8283 39.9643 47.8283C40.0709 47.8283 40.1583 44.8262 40.1583 41.1571V34.4859H38.6677H37.177V37.947C37.177 39.984 37.0894 41.3787 36.9642 41.3364C36.847 41.297 34.9858 39.7396 32.8278 37.8753C30.6698 36.011 28.8049 34.4859 28.6834 34.4859C28.5464 34.4859 28.4625 37.0276 28.4625 41.1674ZM71.2115 34.7823C71.1448 34.9452 71.1223 35.5505 71.1613 36.1273L71.2324 37.1759L73.2391 37.2381L75.2457 37.3003V42.5746V47.8487L76.679 47.7848L78.1123 47.7207L78.1738 42.5021L78.2352 37.2835H80.1804H82.1256V35.8847V34.4859H76.7292C72.358 34.4859 71.3097 34.5423 71.2115 34.7823ZM84.7521 34.7575C84.6911 34.9066 84.6686 37.8846 84.7021 41.3749L84.7628 47.7207L88.9481 47.7794L93.1334 47.8379V46.4344V45.0307H90.3814H87.6295V43.7625C87.6295 42.2346 87.6324 42.2331 90.4002 42.2331H92.4454V40.9419V39.6507H90.0374H87.6295V38.4671V37.2835L89.6361 37.2803C90.7713 37.2786 91.8821 37.1617 92.194 37.0113C92.8742 36.6833 93.5225 35.8626 93.7211 35.0777L93.8711 34.4859H89.3671C85.9535 34.4859 84.8362 34.5516 84.7521 34.7575ZM64.3133 37.1466C66.1587 37.8701 67.0962 40.1786 66.4248 42.3461C65.7907 44.393 64.1377 45.3881 62.3111 44.8224C59.2695 43.8804 59.0378 38.5779 61.9788 37.2181C62.9215 36.7823 63.3504 36.7692 64.3133 37.1466ZM7.82976 37.7677C9.28141 38.4559 9.88684 39.4021 9.88684 40.9823C9.88684 43.3967 8.41707 44.8155 5.91578 44.8155H4.8416V41.0495V37.2835H5.82496C6.38934 37.2835 7.24359 37.4899 7.82976 37.7677ZM20.7749 41.0837C21.2212 41.9901 21.545 42.7704 21.4946 42.818C21.4166 42.8909 18.8261 42.2673 18.6591 42.1354C18.5883 42.0794 19.7968 39.4355 19.8932 39.4355C19.9319 39.4355 20.3287 40.1771 20.7749 41.0837Z" fill="white"/>
</svg>
