<svg width="101" height="25" viewBox="0 0 101 25" fill="none" xmlns="http://www.w3.org/2000/svg">
<path fill-rule="evenodd" clip-rule="evenodd" d="M11.4888 1.16253C10.2261 2.44897 10.4384 2.7195 12.7105 2.7195C14.9975 2.7195 15.1905 2.44919 13.8169 1.16987C13.2223 0.616127 12.6759 0.163086 12.6027 0.163086C12.5296 0.163086 12.0283 0.612793 11.4888 1.16253ZM8.05741 4.59369L6.97793 5.68961L8.01828 6.34939C10.5987 7.98594 13.6911 8.12554 16.5094 6.73263C17.4154 6.28492 18.1568 5.84522 18.1568 5.75563C18.1568 5.66605 17.6749 5.11786 17.0858 4.53789L16.015 3.48287L15.0295 3.92991C13.7229 4.52277 11.7051 4.52589 10.4078 3.93724C9.87469 3.69539 9.37074 3.49754 9.28782 3.49754C9.20491 3.49754 8.65117 3.99082 8.05741 4.59369ZM4.69961 7.95171C4.06029 8.60104 3.69016 9.13855 3.81887 9.23125C5.45787 10.4108 7.10553 11.3368 8.23302 11.7121C11.1947 12.6975 14.5276 12.6608 17.3788 11.6114C19.0347 11.0018 21.3801 9.55313 21.3801 9.14011C21.3801 9.00362 20.9482 8.42342 20.4205 7.85078L19.461 6.80977L18.4433 7.48377C16.5954 8.70796 15.16 9.13344 12.8217 9.15055C10.4255 9.16812 9.20002 8.83311 7.15488 7.60159C6.45176 7.17834 5.86 6.832 5.83955 6.832C5.81932 6.832 5.30626 7.33594 4.69961 7.95171ZM1.42896 11.2633C0.848318 11.865 0.373047 12.4063 0.373047 12.4659C0.373047 12.7767 3.38362 14.7882 4.93014 15.5109C7.67617 16.794 9.36229 17.1497 12.7105 17.1521C15.0358 17.1539 15.9387 17.0579 17.3319 16.6597C19.6831 15.988 21.5117 15.1135 23.4613 13.7281L25.098 12.565L23.935 11.3875L22.7719 10.2098L21.7427 11.0001C20.4447 11.9966 17.9996 13.1617 16.2673 13.6092C14.4805 14.0709 11.0151 14.068 9.11065 13.6034C7.27692 13.1559 4.65315 11.8928 3.49076 10.8978C3.02105 10.4955 2.60246 10.1669 2.56067 10.1676C2.51888 10.1682 2.0096 10.6613 1.42896 11.2633ZM9.04018 21.1406L12.7056 24.8381L16.3124 21.2362C18.2962 19.2553 19.8814 17.5965 19.8351 17.5503C19.7889 17.504 19.5673 17.5607 19.343 17.6761C17.2007 18.7773 10.8219 19.087 7.82 18.2354C6.96415 17.9926 6.06385 17.715 5.81932 17.6185C5.5748 17.522 7.02417 19.107 9.04018 21.1406Z" fill="white"/>
<path d="M31.1392 20.1698V4.60902H37.9414C39.6309 4.60902 41.1129 4.93505 42.3874 5.58712C43.6619 6.23919 44.6548 7.1432 45.3662 8.29915C46.0775 9.45509 46.4332 10.8185 46.4332 12.3894C46.4332 13.9455 46.0775 15.3089 45.3662 16.4797C44.6548 17.6356 43.6619 18.5396 42.3874 19.1917C41.1129 19.8438 39.6309 20.1698 37.9414 20.1698H31.1392ZM34.029 17.7245H37.8081C38.9788 17.7245 39.9866 17.5022 40.8313 17.0576C41.6909 16.6131 42.3503 15.9906 42.8098 15.1904C43.284 14.3901 43.5211 13.4564 43.5211 12.3894C43.5211 11.3076 43.284 10.3739 42.8098 9.58847C42.3503 8.7882 41.6909 8.16577 40.8313 7.72117C39.9866 7.27658 38.9788 7.05428 37.8081 7.05428H34.029V17.7245Z" fill="white"/>
<path d="M56.7961 20.3921C55.5808 20.3921 54.4619 20.192 53.4394 19.7919C52.4168 19.3918 51.5276 18.836 50.7718 18.1247C50.016 17.3985 49.4306 16.5538 49.0157 15.5905C48.6007 14.6124 48.3932 13.5454 48.3932 12.3894C48.3932 11.2335 48.6007 10.1739 49.0157 9.21056C49.4306 8.23246 50.016 7.38773 50.7718 6.67638C51.5276 5.95021 52.4168 5.38706 53.4394 4.98692C54.4619 4.58679 55.5734 4.38672 56.7738 4.38672C57.9891 4.38672 59.1005 4.58679 60.1083 4.98692C61.1308 5.38706 62.02 5.95021 62.7758 6.67638C63.5317 7.38773 64.117 8.23246 64.532 9.21056C64.9469 10.1739 65.1544 11.2335 65.1544 12.3894C65.1544 13.5454 64.9469 14.6124 64.532 15.5905C64.117 16.5686 63.5317 17.4133 62.7758 18.1247C62.02 18.836 61.1308 19.3918 60.1083 19.7919C59.1005 20.192 57.9965 20.3921 56.7961 20.3921ZM56.7738 17.8579C57.5593 17.8579 58.2854 17.7245 58.9523 17.4578C59.6192 17.191 60.1972 16.8131 60.6863 16.3241C61.1753 15.8202 61.5532 15.2422 61.82 14.5902C62.1015 13.9233 62.2423 13.1897 62.2423 12.3894C62.2423 11.5891 62.1015 10.863 61.82 10.2109C61.5532 9.54401 61.1753 8.96604 60.6863 8.47698C60.1972 7.97311 59.6192 7.5878 58.9523 7.32104C58.2854 7.05428 57.5593 6.92091 56.7738 6.92091C55.9884 6.92091 55.2622 7.05428 54.5953 7.32104C53.9432 7.5878 53.3653 7.97311 52.8614 8.47698C52.3723 8.96604 51.987 9.54401 51.7055 10.2109C51.4387 10.863 51.3053 11.5891 51.3053 12.3894C51.3053 13.1749 51.4387 13.901 51.7055 14.5679C51.987 15.2348 52.3723 15.8202 52.8614 16.3241C53.3505 16.8131 53.9284 17.191 54.5953 17.4578C55.2622 17.7245 55.9884 17.8579 56.7738 17.8579Z" fill="white"/>
<path d="M68.2176 20.1698V4.60902H70.5962L77.3985 15.9684H76.1536L82.8447 4.60902H85.2233L85.2456 20.1698H82.5113L82.4891 8.89935H83.067L77.3762 18.3914H76.0869L70.3072 8.89935H70.9741V20.1698H68.2176Z" fill="white"/>
<path d="M89.4487 20.1698V4.60902H92.3386V17.7245H100.475V20.1698H89.4487Z" fill="white"/>
<rect x="41.9424" y="10.833" width="10.6703" height="3.11216" rx="1.55608" fill="url(#paint0_linear_7_17)"/>
<defs>
<linearGradient id="paint0_linear_7_17" x1="53.2795" y1="10.1661" x2="40.6086" y2="14.1675" gradientUnits="userSpaceOnUse">
<stop stop-color="#FF2DF7"/>
<stop offset="1" stop-color="#00E0FF"/>
</linearGradient>
</defs>
</svg>
